solid OpenSCAD_Model
  facet normal 0.987688 0.156434 0
    outer loop
      vertex 0.25 0 10
      vertex 0.237764 0.0772543 0
      vertex 0.237764 0.0772543 10
    endloop
  endfacet
  facet normal 0.987688 0.156434 0
    outer loop
      vertex 0.237764 0.0772543 0
      vertex 0.25 0 10
      vertex 0.25 0 0
    endloop
  endfacet
  facet normal 0.891006 0.453991 0
    outer loop
      vertex 0.237764 0.0772543 10
      vertex 0.202254 0.146946 0
      vertex 0.202254 0.146946 10
    endloop
  endfacet
  facet normal 0.891006 0.453991 0
    outer loop
      vertex 0.202254 0.146946 0
      vertex 0.237764 0.0772543 10
      vertex 0.237764 0.0772543 0
    endloop
  endfacet
  facet normal 0.707107 0.707107 0
    outer loop
      vertex 0.202254 0.146946 10
      vertex 0.146946 0.202254 0
      vertex 0.146946 0.202254 10
    endloop
  endfacet
  facet normal 0.707107 0.707107 0
    outer loop
      vertex 0.146946 0.202254 0
      vertex 0.202254 0.146946 10
      vertex 0.202254 0.146946 0
    endloop
  endfacet
  facet normal 0.453991 0.891006 -0
    outer loop
      vertex 0.146946 0.202254 0
      vertex 0.0772543 0.237764 10
      vertex 0.146946 0.202254 10
    endloop
  endfacet
  facet normal 0.453991 0.891006 0
    outer loop
      vertex 0.0772543 0.237764 10
      vertex 0.146946 0.202254 0
      vertex 0.0772543 0.237764 0
    endloop
  endfacet
  facet normal 0.156434 0.987688 -0
    outer loop
      vertex 0.0772543 0.237764 0
      vertex 1.53081e-17 0.25 10
      vertex 0.0772543 0.237764 10
    endloop
  endfacet
  facet normal 0.156434 0.987688 0
    outer loop
      vertex 1.53081e-17 0.25 10
      vertex 0.0772543 0.237764 0
      vertex 1.53081e-17 0.25 0
    endloop
  endfacet
  facet normal -0.156434 0.987688 0
    outer loop
      vertex 1.53081e-17 0.25 0
      vertex -0.0772543 0.237764 10
      vertex 1.53081e-17 0.25 10
    endloop
  endfacet
  facet normal -0.156434 0.987688 0
    outer loop
      vertex -0.0772543 0.237764 10
      vertex 1.53081e-17 0.25 0
      vertex -0.0772543 0.237764 0
    endloop
  endfacet
  facet normal -0.453991 0.891006 0
    outer loop
      vertex -0.0772543 0.237764 0
      vertex -0.146946 0.202254 10
      vertex -0.0772543 0.237764 10
    endloop
  endfacet
  facet normal -0.453991 0.891006 0
    outer loop
      vertex -0.146946 0.202254 10
      vertex -0.0772543 0.237764 0
      vertex -0.146946 0.202254 0
    endloop
  endfacet
  facet normal -0.707107 0.707107 0
    outer loop
      vertex -0.202254 0.146946 0
      vertex -0.146946 0.202254 10
      vertex -0.146946 0.202254 0
    endloop
  endfacet
  facet normal -0.707107 0.707107 0
    outer loop
      vertex -0.146946 0.202254 10
      vertex -0.202254 0.146946 0
      vertex -0.202254 0.146946 10
    endloop
  endfacet
  facet normal -0.891006 0.453991 0
    outer loop
      vertex -0.237764 0.0772543 0
      vertex -0.202254 0.146946 10
      vertex -0.202254 0.146946 0
    endloop
  endfacet
  facet normal -0.891006 0.453991 0
    outer loop
      vertex -0.202254 0.146946 10
      vertex -0.237764 0.0772543 0
      vertex -0.237764 0.0772543 10
    endloop
  endfacet
  facet normal -0.987688 0.156434 0
    outer loop
      vertex -0.25 3.06162e-17 0
      vertex -0.237764 0.0772543 10
      vertex -0.237764 0.0772543 0
    endloop
  endfacet
  facet normal -0.987688 0.156434 0
    outer loop
      vertex -0.237764 0.0772543 10
      vertex -0.25 3.06162e-17 0
      vertex -0.25 3.06162e-17 10
    endloop
  endfacet
  facet normal -0.987688 -0.156434 0
    outer loop
      vertex -0.237764 -0.0772543 0
      vertex -0.25 3.06162e-17 10
      vertex -0.25 3.06162e-17 0
    endloop
  endfacet
  facet normal -0.987688 -0.156434 0
    outer loop
      vertex -0.25 3.06162e-17 10
      vertex -0.237764 -0.0772543 0
      vertex -0.237764 -0.0772543 10
    endloop
  endfacet
  facet normal -0.891006 -0.453991 0
    outer loop
      vertex -0.202254 -0.146946 0
      vertex -0.237764 -0.0772543 10
      vertex -0.237764 -0.0772543 0
    endloop
  endfacet
  facet normal -0.891006 -0.453991 0
    outer loop
      vertex -0.237764 -0.0772543 10
      vertex -0.202254 -0.146946 0
      vertex -0.202254 -0.146946 10
    endloop
  endfacet
  facet normal -0.707107 -0.707107 0
    outer loop
      vertex -0.146946 -0.202254 0
      vertex -0.202254 -0.146946 10
      vertex -0.202254 -0.146946 0
    endloop
  endfacet
  facet normal -0.707107 -0.707107 0
    outer loop
      vertex -0.202254 -0.146946 10
      vertex -0.146946 -0.202254 0
      vertex -0.146946 -0.202254 10
    endloop
  endfacet
  facet normal -0.453991 -0.891006 0
    outer loop
      vertex -0.146946 -0.202254 0
      vertex -0.0772543 -0.237764 10
      vertex -0.146946 -0.202254 10
    endloop
  endfacet
  facet normal -0.453991 -0.891006 -0
    outer loop
      vertex -0.0772543 -0.237764 10
      vertex -0.146946 -0.202254 0
      vertex -0.0772543 -0.237764 0
    endloop
  endfacet
  facet normal -0.156434 -0.987688 0
    outer loop
      vertex -0.0772543 -0.237764 0
      vertex -4.59243e-17 -0.25 10
      vertex -0.0772543 -0.237764 10
    endloop
  endfacet
  facet normal -0.156434 -0.987688 -0
    outer loop
      vertex -4.59243e-17 -0.25 10
      vertex -0.0772543 -0.237764 0
      vertex -4.59243e-17 -0.25 0
    endloop
  endfacet
  facet normal 0.156434 -0.987688 0
    outer loop
      vertex -4.59243e-17 -0.25 0
      vertex 0.0772543 -0.237764 10
      vertex -4.59243e-17 -0.25 10
    endloop
  endfacet
  facet normal 0.156434 -0.987688 0
    outer loop
      vertex 0.0772543 -0.237764 10
      vertex -4.59243e-17 -0.25 0
      vertex 0.0772543 -0.237764 0
    endloop
  endfacet
  facet normal 0.453991 -0.891006 0
    outer loop
      vertex 0.0772543 -0.237764 0
      vertex 0.146946 -0.202254 10
      vertex 0.0772543 -0.237764 10
    endloop
  endfacet
  facet normal 0.453991 -0.891006 0
    outer loop
      vertex 0.146946 -0.202254 10
      vertex 0.0772543 -0.237764 0
      vertex 0.146946 -0.202254 0
    endloop
  endfacet
  facet normal 0.707107 -0.707107 0
    outer loop
      vertex 0.146946 -0.202254 10
      vertex 0.202254 -0.146946 0
      vertex 0.202254 -0.146946 10
    endloop
  endfacet
  facet normal 0.707107 -0.707107 0
    outer loop
      vertex 0.202254 -0.146946 0
      vertex 0.146946 -0.202254 10
      vertex 0.146946 -0.202254 0
    endloop
  endfacet
  facet normal 0.891006 -0.453991 0
    outer loop
      vertex 0.202254 -0.146946 10
      vertex 0.237764 -0.0772543 0
      vertex 0.237764 -0.0772543 10
    endloop
  endfacet
  facet normal 0.891006 -0.453991 0
    outer loop
      vertex 0.237764 -0.0772543 0
      vertex 0.202254 -0.146946 10
      vertex 0.202254 -0.146946 0
    endloop
  endfacet
  facet normal 0.987688 -0.156434 0
    outer loop
      vertex 0.237764 -0.0772543 10
      vertex 0.25 0 0
      vertex 0.25 0 10
    endloop
  endfacet
  facet normal 0.987688 -0.156434 0
    outer loop
      vertex 0.25 0 0
      vertex 0.237764 -0.0772543 10
      vertex 0.237764 -0.0772543 0
    endloop
  endfacet
  facet normal 0 0 -1
    outer loop
      vertex 0.237764 -0.0772543 0
      vertex 0.237764 0.0772543 0
      vertex 0.25 0 0
    endloop
  endfacet
  facet normal 0 0 -1
    outer loop
      vertex 0.202254 -0.146946 0
      vertex 0.237764 0.0772543 0
      vertex 0.237764 -0.0772543 0
    endloop
  endfacet
  facet normal 0 0 -1
    outer loop
      vertex 0.202254 -0.146946 0
      vertex 0.202254 0.146946 0
      vertex 0.237764 0.0772543 0
    endloop
  endfacet
  facet normal 0 0 -1
    outer loop
      vertex 0.146946 -0.202254 0
      vertex 0.202254 0.146946 0
      vertex 0.202254 -0.146946 0
    endloop
  endfacet
  facet normal 0 0 -1
    outer loop
      vertex 0.146946 -0.202254 0
      vertex 0.146946 0.202254 0
      vertex 0.202254 0.146946 0
    endloop
  endfacet
  facet normal 0 0 -1
    outer loop
      vertex 0.0772543 -0.237764 0
      vertex 0.146946 0.202254 0
      vertex 0.146946 -0.202254 0
    endloop
  endfacet
  facet normal 0 0 -1
    outer loop
      vertex 0.0772543 -0.237764 0
      vertex 0.0772543 0.237764 0
      vertex 0.146946 0.202254 0
    endloop
  endfacet
  facet normal 0 0 -1
    outer loop
      vertex 0.0772543 -0.237764 0
      vertex 1.53081e-17 0.25 0
      vertex 0.0772543 0.237764 0
    endloop
  endfacet
  facet normal 0 0 -1
    outer loop
      vertex -4.59243e-17 -0.25 0
      vertex 1.53081e-17 0.25 0
      vertex 0.0772543 -0.237764 0
    endloop
  endfacet
  facet normal 0 0 -1
    outer loop
      vertex -0.0772543 -0.237764 0
      vertex 1.53081e-17 0.25 0
      vertex -4.59243e-17 -0.25 0
    endloop
  endfacet
  facet normal 0 0 -1
    outer loop
      vertex -0.0772543 -0.237764 0
      vertex -0.0772543 0.237764 0
      vertex 1.53081e-17 0.25 0
    endloop
  endfacet
  facet normal 0 0 -1
    outer loop
      vertex -0.146946 -0.202254 0
      vertex -0.0772543 0.237764 0
      vertex -0.0772543 -0.237764 0
    endloop
  endfacet
  facet normal 0 0 -1
    outer loop
      vertex -0.146946 -0.202254 0
      vertex -0.146946 0.202254 0
      vertex -0.0772543 0.237764 0
    endloop
  endfacet
  facet normal 0 0 -1
    outer loop
      vertex -0.202254 -0.146946 0
      vertex -0.146946 0.202254 0
      vertex -0.146946 -0.202254 0
    endloop
  endfacet
  facet normal 0 0 -1
    outer loop
      vertex -0.202254 -0.146946 0
      vertex -0.202254 0.146946 0
      vertex -0.146946 0.202254 0
    endloop
  endfacet
  facet normal 0 0 -1
    outer loop
      vertex -0.237764 -0.0772543 0
      vertex -0.202254 0.146946 0
      vertex -0.202254 -0.146946 0
    endloop
  endfacet
  facet normal 0 0 -1
    outer loop
      vertex -0.237764 -0.0772543 0
      vertex -0.237764 0.0772543 0
      vertex -0.202254 0.146946 0
    endloop
  endfacet
  facet normal 0 -0 -1
    outer loop
      vertex -0.237764 0.0772543 0
      vertex -0.237764 -0.0772543 0
      vertex -0.25 3.06162e-17 0
    endloop
  endfacet
  facet normal 0 0 1
    outer loop
      vertex 0.237764 0.0772543 10
      vertex 0.237764 -0.0772543 10
      vertex 0.25 0 10
    endloop
  endfacet
  facet normal 0 0 1
    outer loop
      vertex 0.202254 0.146946 10
      vertex 0.237764 -0.0772543 10
      vertex 0.237764 0.0772543 10
    endloop
  endfacet
  facet normal 0 0 1
    outer loop
      vertex 0.202254 0.146946 10
      vertex 0.202254 -0.146946 10
      vertex 0.237764 -0.0772543 10
    endloop
  endfacet
  facet normal 0 0 1
    outer loop
      vertex 0.146946 0.202254 10
      vertex 0.202254 -0.146946 10
      vertex 0.202254 0.146946 10
    endloop
  endfacet
  facet normal 0 0 1
    outer loop
      vertex 0.146946 0.202254 10
      vertex 0.146946 -0.202254 10
      vertex 0.202254 -0.146946 10
    endloop
  endfacet
  facet normal 0 0 1
    outer loop
      vertex 0.0772543 0.237764 10
      vertex 0.146946 -0.202254 10
      vertex 0.146946 0.202254 10
    endloop
  endfacet
  facet normal 0 0 1
    outer loop
      vertex 0.0772543 0.237764 10
      vertex 0.0772543 -0.237764 10
      vertex 0.146946 -0.202254 10
    endloop
  endfacet
  facet normal 0 0 1
    outer loop
      vertex 1.53081e-17 0.25 10
      vertex 0.0772543 -0.237764 10
      vertex 0.0772543 0.237764 10
    endloop
  endfacet
  facet normal 0 0 1
    outer loop
      vertex 1.53081e-17 0.25 10
      vertex -4.59243e-17 -0.25 10
      vertex 0.0772543 -0.237764 10
    endloop
  endfacet
  facet normal -0 0 1
    outer loop
      vertex -0.0772543 0.237764 10
      vertex -4.59243e-17 -0.25 10
      vertex 1.53081e-17 0.25 10
    endloop
  endfacet
  facet normal 0 0 1
    outer loop
      vertex -0.0772543 0.237764 10
      vertex -0.0772543 -0.237764 10
      vertex -4.59243e-17 -0.25 10
    endloop
  endfacet
  facet normal -0 0 1
    outer loop
      vertex -0.146946 0.202254 10
      vertex -0.0772543 -0.237764 10
      vertex -0.0772543 0.237764 10
    endloop
  endfacet
  facet normal 0 0 1
    outer loop
      vertex -0.146946 0.202254 10
      vertex -0.146946 -0.202254 10
      vertex -0.0772543 -0.237764 10
    endloop
  endfacet
  facet normal -0 0 1
    outer loop
      vertex -0.202254 0.146946 10
      vertex -0.146946 -0.202254 10
      vertex -0.146946 0.202254 10
    endloop
  endfacet
  facet normal 0 0 1
    outer loop
      vertex -0.202254 0.146946 10
      vertex -0.202254 -0.146946 10
      vertex -0.146946 -0.202254 10
    endloop
  endfacet
  facet normal -0 0 1
    outer loop
      vertex -0.237764 0.0772543 10
      vertex -0.202254 -0.146946 10
      vertex -0.202254 0.146946 10
    endloop
  endfacet
  facet normal 0 0 1
    outer loop
      vertex -0.237764 0.0772543 10
      vertex -0.237764 -0.0772543 10
      vertex -0.202254 -0.146946 10
    endloop
  endfacet
  facet normal 0 -0 1
    outer loop
      vertex -0.237764 -0.0772543 10
      vertex -0.237764 0.0772543 10
      vertex -0.25 3.06162e-17 10
    endloop
  endfacet
endsolid OpenSCAD_Model
