solid OpenSCAD_Model
  facet normal 0.996916 0.0784736 0
    outer loop
      vertex 5.25 0 2
      vertex 5.24692 0.0391083 0
      vertex 5.24692 0.0391083 2
    endloop
  endfacet
  facet normal 0.996916 0.0784736 0
    outer loop
      vertex 5.24692 0.0391083 0
      vertex 5.25 0 2
      vertex 5.25 0 0
    endloop
  endfacet
  facet normal 0.996916 0.0784736 0
    outer loop
      vertex 5.25 0 5
      vertex 5.24692 0.0391083 2.25
      vertex 5.24692 0.0391083 5
    endloop
  endfacet
  facet normal 0.996916 0.0784736 0
    outer loop
      vertex 5.24692 0.0391083 2.25
      vertex 5.25 0 5
      vertex 5.25 0 2.25
    endloop
  endfacet
  facet normal -0.0784717 0.996916 0
    outer loop
      vertex 5 0.25 0
      vertex 4.96089 0.246922 2
      vertex 5 0.25 2
    endloop
  endfacet
  facet normal -0.0784717 0.996916 0
    outer loop
      vertex 4.96089 0.246922 2
      vertex 5 0.25 0
      vertex 4.96089 0.246922 0
    endloop
  endfacet
  facet normal -0.0784717 0.996916 0
    outer loop
      vertex 5 0.25 2.25
      vertex 4.96089 0.246922 5
      vertex 5 0.25 5
    endloop
  endfacet
  facet normal -0.0784717 0.996916 0
    outer loop
      vertex 4.96089 0.246922 5
      vertex 5 0.25 2.25
      vertex 4.96089 0.246922 2.25
    endloop
  endfacet
  facet normal 0.0784736 -0.996916 0
    outer loop
      vertex 5 -0.25 0
      vertex 5.03911 -0.246922 5
      vertex 5 -0.25 5
    endloop
  endfacet
  facet normal 0.0784736 -0.996916 0
    outer loop
      vertex 5.03911 -0.246922 5
      vertex 5 -0.25 0
      vertex 5.03911 -0.246922 0
    endloop
  endfacet
  facet normal 0.649451 0.760403 -0
    outer loop
      vertex 5.17678 0.176776 0
      vertex 5.14695 0.202253 2
      vertex 5.17678 0.176776 2
    endloop
  endfacet
  facet normal 0.649451 0.760403 0
    outer loop
      vertex 5.14695 0.202253 2
      vertex 5.17678 0.176776 0
      vertex 5.14695 0.202253 0
    endloop
  endfacet
  facet normal 0.649451 0.760403 -0
    outer loop
      vertex 5.17678 0.176776 2.25
      vertex 5.14695 0.202253 5
      vertex 5.17678 0.176776 5
    endloop
  endfacet
  facet normal 0.649451 0.760403 0
    outer loop
      vertex 5.14695 0.202253 5
      vertex 5.17678 0.176776 2.25
      vertex 5.14695 0.202253 2.25
    endloop
  endfacet
  facet normal -0.760403 0.649451 0
    outer loop
      vertex 4.79775 0.146946 0
      vertex 4.82322 0.176776 2
      vertex 4.82322 0.176776 0
    endloop
  endfacet
  facet normal -0.760403 0.649451 0
    outer loop
      vertex 4.82322 0.176776 2
      vertex 4.79775 0.146946 0
      vertex 4.79775 0.146946 2
    endloop
  endfacet
  facet normal -0.760403 0.649451 0
    outer loop
      vertex 4.79775 0.146946 2.25
      vertex 4.82322 0.176776 5
      vertex 4.82322 0.176776 2.25
    endloop
  endfacet
  facet normal -0.760403 0.649451 0
    outer loop
      vertex 4.82322 0.176776 5
      vertex 4.79775 0.146946 2.25
      vertex 4.79775 0.146946 5
    endloop
  endfacet
  facet normal -0.382667 0.923886 0
    outer loop
      vertex 4.92275 0.237763 0
      vertex 4.8865 0.222752 2
      vertex 4.92275 0.237763 2
    endloop
  endfacet
  facet normal -0.382667 0.923886 0
    outer loop
      vertex 4.8865 0.222752 2
      vertex 4.92275 0.237763 0
      vertex 4.8865 0.222752 0
    endloop
  endfacet
  facet normal -0.382667 0.923886 0
    outer loop
      vertex 4.92275 0.237763 2.25
      vertex 4.8865 0.222752 5
      vertex 4.92275 0.237763 5
    endloop
  endfacet
  facet normal -0.382667 0.923886 0
    outer loop
      vertex 4.8865 0.222752 5
      vertex 4.92275 0.237763 2.25
      vertex 4.8865 0.222752 2.25
    endloop
  endfacet
  facet normal 0.852633 -0.52251 0
    outer loop
      vertex 5.20225 -0.146946 5
      vertex 5.22275 -0.113497 0
      vertex 5.22275 -0.113497 5
    endloop
  endfacet
  facet normal 0.852633 -0.52251 0
    outer loop
      vertex 5.22275 -0.113497 0
      vertex 5.20225 -0.146946 5
      vertex 5.20225 -0.146946 0
    endloop
  endfacet
  facet normal 0.923886 0.382667 0
    outer loop
      vertex 5.23776 0.0772533 5
      vertex 5.22275 0.113497 2.25
      vertex 5.22275 0.113497 5
    endloop
  endfacet
  facet normal 0.923886 0.382667 0
    outer loop
      vertex 5.22275 0.113497 2.25
      vertex 5.23776 0.0772533 5
      vertex 5.23776 0.0772533 2.25
    endloop
  endfacet
  facet normal 0.923886 0.382667 0
    outer loop
      vertex 5.23776 0.0772533 2
      vertex 5.22275 0.113497 0
      vertex 5.22275 0.113497 2
    endloop
  endfacet
  facet normal 0.923886 0.382667 0
    outer loop
      vertex 5.22275 0.113497 0
      vertex 5.23776 0.0772533 2
      vertex 5.23776 0.0772533 0
    endloop
  endfacet
  facet normal 0.972368 0.233453 0
    outer loop
      vertex 5.24692 0.0391083 2
      vertex 5.23776 0.0772533 0
      vertex 5.23776 0.0772533 2
    endloop
  endfacet
  facet normal 0.972368 0.233453 0
    outer loop
      vertex 5.23776 0.0772533 0
      vertex 5.24692 0.0391083 2
      vertex 5.24692 0.0391083 0
    endloop
  endfacet
  facet normal 0.972368 0.233453 0
    outer loop
      vertex 5.24692 0.0391083 5
      vertex 5.23776 0.0772533 2.25
      vertex 5.23776 0.0772533 5
    endloop
  endfacet
  facet normal 0.972368 0.233453 0
    outer loop
      vertex 5.23776 0.0772533 2.25
      vertex 5.24692 0.0391083 5
      vertex 5.24692 0.0391083 2.25
    endloop
  endfacet
  facet normal 0.852633 0.52251 0
    outer loop
      vertex 5.22275 0.113497 2
      vertex 5.20225 0.146946 0
      vertex 5.20225 0.146946 2
    endloop
  endfacet
  facet normal 0.852633 0.52251 0
    outer loop
      vertex 5.20225 0.146946 0
      vertex 5.22275 0.113497 2
      vertex 5.22275 0.113497 0
    endloop
  endfacet
  facet normal 0.852633 0.52251 0
    outer loop
      vertex 5.22275 0.113497 5
      vertex 5.20225 0.146946 2.25
      vertex 5.20225 0.146946 5
    endloop
  endfacet
  facet normal 0.852633 0.52251 0
    outer loop
      vertex 5.20225 0.146946 2.25
      vertex 5.22275 0.113497 5
      vertex 5.22275 0.113497 2.25
    endloop
  endfacet
  facet normal 0.233453 0.972368 -0
    outer loop
      vertex 5.07725 0.237763 0
      vertex 5.03911 0.246922 2
      vertex 5.07725 0.237763 2
    endloop
  endfacet
  facet normal 0.233453 0.972368 0
    outer loop
      vertex 5.03911 0.246922 2
      vertex 5.07725 0.237763 0
      vertex 5.03911 0.246922 0
    endloop
  endfacet
  facet normal 0.233453 0.972368 -0
    outer loop
      vertex 5.07725 0.237763 2.25
      vertex 5.03911 0.246922 5
      vertex 5.07725 0.237763 5
    endloop
  endfacet
  facet normal 0.233453 0.972368 0
    outer loop
      vertex 5.03911 0.246922 5
      vertex 5.07725 0.237763 2.25
      vertex 5.03911 0.246922 2.25
    endloop
  endfacet
  facet normal 0.0784736 0.996916 -0
    outer loop
      vertex 5.03911 0.246922 0
      vertex 5 0.25 2
      vertex 5.03911 0.246922 2
    endloop
  endfacet
  facet normal 0.0784736 0.996916 0
    outer loop
      vertex 5 0.25 2
      vertex 5.03911 0.246922 0
      vertex 5 0.25 0
    endloop
  endfacet
  facet normal 0.0784736 0.996916 -0
    outer loop
      vertex 5.03911 0.246922 2.25
      vertex 5 0.25 5
      vertex 5.03911 0.246922 5
    endloop
  endfacet
  facet normal 0.0784736 0.996916 0
    outer loop
      vertex 5 0.25 5
      vertex 5.03911 0.246922 2.25
      vertex 5 0.25 2.25
    endloop
  endfacet
  facet normal 0.52251 0.852633 -0
    outer loop
      vertex 5.14695 0.202253 0
      vertex 5.1135 0.222752 2
      vertex 5.14695 0.202253 2
    endloop
  endfacet
  facet normal 0.52251 0.852633 0
    outer loop
      vertex 5.1135 0.222752 2
      vertex 5.14695 0.202253 0
      vertex 5.1135 0.222752 0
    endloop
  endfacet
  facet normal 0.52251 0.852633 -0
    outer loop
      vertex 5.14695 0.202253 2.25
      vertex 5.1135 0.222752 5
      vertex 5.14695 0.202253 5
    endloop
  endfacet
  facet normal 0.52251 0.852633 0
    outer loop
      vertex 5.1135 0.222752 5
      vertex 5.14695 0.202253 2.25
      vertex 5.1135 0.222752 2.25
    endloop
  endfacet
  facet normal -0.972368 0.233453 0
    outer loop
      vertex 4.75308 0.0391083 0
      vertex 4.76224 0.0772533 2
      vertex 4.76224 0.0772533 0
    endloop
  endfacet
  facet normal -0.972368 0.233453 0
    outer loop
      vertex 4.76224 0.0772533 2
      vertex 4.75308 0.0391083 0
      vertex 4.75308 0.0391083 2
    endloop
  endfacet
  facet normal -0.972368 0.233453 0
    outer loop
      vertex 4.75308 0.0391083 2.25
      vertex 4.76224 0.0772533 5
      vertex 4.76224 0.0772533 2.25
    endloop
  endfacet
  facet normal -0.972368 0.233453 0
    outer loop
      vertex 4.76224 0.0772533 5
      vertex 4.75308 0.0391083 2.25
      vertex 4.75308 0.0391083 5
    endloop
  endfacet
  facet normal 0 0 -1
    outer loop
      vertex 5.24692 -0.0391083 0
      vertex 5.24692 0.0391083 0
      vertex 5.25 0 0
    endloop
  endfacet
  facet normal 0 0 -1
    outer loop
      vertex 5.23776 -0.0772533 0
      vertex 5.24692 0.0391083 0
      vertex 5.24692 -0.0391083 0
    endloop
  endfacet
  facet normal 0 0 -1
    outer loop
      vertex 5.23776 -0.0772533 0
      vertex 5.23776 0.0772533 0
      vertex 5.24692 0.0391083 0
    endloop
  endfacet
  facet normal 0 0 -1
    outer loop
      vertex 5.22275 -0.113497 0
      vertex 5.23776 0.0772533 0
      vertex 5.23776 -0.0772533 0
    endloop
  endfacet
  facet normal 0 0 -1
    outer loop
      vertex 5.22275 -0.113497 0
      vertex 5.22275 0.113497 0
      vertex 5.23776 0.0772533 0
    endloop
  endfacet
  facet normal 0 0 -1
    outer loop
      vertex 5.20225 -0.146946 0
      vertex 5.22275 0.113497 0
      vertex 5.22275 -0.113497 0
    endloop
  endfacet
  facet normal 0 0 -1
    outer loop
      vertex 5.20225 -0.146946 0
      vertex 5.20225 0.146946 0
      vertex 5.22275 0.113497 0
    endloop
  endfacet
  facet normal 0 0 -1
    outer loop
      vertex 5.17678 -0.176776 0
      vertex 5.20225 0.146946 0
      vertex 5.20225 -0.146946 0
    endloop
  endfacet
  facet normal 0 0 -1
    outer loop
      vertex 5.17678 -0.176776 0
      vertex 5.17678 0.176776 0
      vertex 5.20225 0.146946 0
    endloop
  endfacet
  facet normal 0 0 -1
    outer loop
      vertex 5.14695 -0.202253 0
      vertex 5.17678 0.176776 0
      vertex 5.17678 -0.176776 0
    endloop
  endfacet
  facet normal 0 0 -1
    outer loop
      vertex 5.14695 -0.202253 0
      vertex 5.14695 0.202253 0
      vertex 5.17678 0.176776 0
    endloop
  endfacet
  facet normal 0 0 -1
    outer loop
      vertex 5.1135 -0.222752 0
      vertex 5.14695 0.202253 0
      vertex 5.14695 -0.202253 0
    endloop
  endfacet
  facet normal 0 0 -1
    outer loop
      vertex 5.1135 -0.222752 0
      vertex 5.1135 0.222752 0
      vertex 5.14695 0.202253 0
    endloop
  endfacet
  facet normal 0 0 -1
    outer loop
      vertex 5.07725 -0.237763 0
      vertex 5.1135 0.222752 0
      vertex 5.1135 -0.222752 0
    endloop
  endfacet
  facet normal 0 0 -1
    outer loop
      vertex 5.07725 -0.237763 0
      vertex 5.07725 0.237763 0
      vertex 5.1135 0.222752 0
    endloop
  endfacet
  facet normal 0 0 -1
    outer loop
      vertex 5.03911 -0.246922 0
      vertex 5.07725 0.237763 0
      vertex 5.07725 -0.237763 0
    endloop
  endfacet
  facet normal 0 0 -1
    outer loop
      vertex 5.03911 -0.246922 0
      vertex 5.03911 0.246922 0
      vertex 5.07725 0.237763 0
    endloop
  endfacet
  facet normal 0 0 -1
    outer loop
      vertex 5 -0.25 0
      vertex 5.03911 0.246922 0
      vertex 5.03911 -0.246922 0
    endloop
  endfacet
  facet normal 0 0 -1
    outer loop
      vertex 5 -0.25 0
      vertex 5 0.25 0
      vertex 5.03911 0.246922 0
    endloop
  endfacet
  facet normal 0 0 -1
    outer loop
      vertex 4.96089 -0.246922 0
      vertex 5 0.25 0
      vertex 5 -0.25 0
    endloop
  endfacet
  facet normal 0 0 -1
    outer loop
      vertex 4.96089 -0.246922 0
      vertex 4.96089 0.246922 0
      vertex 5 0.25 0
    endloop
  endfacet
  facet normal 0 0 -1
    outer loop
      vertex 4.92275 -0.237763 0
      vertex 4.96089 0.246922 0
      vertex 4.96089 -0.246922 0
    endloop
  endfacet
  facet normal 0 0 -1
    outer loop
      vertex 4.92275 -0.237763 0
      vertex 4.92275 0.237763 0
      vertex 4.96089 0.246922 0
    endloop
  endfacet
  facet normal 0 0 -1
    outer loop
      vertex 4.8865 -0.222752 0
      vertex 4.92275 0.237763 0
      vertex 4.92275 -0.237763 0
    endloop
  endfacet
  facet normal 0 0 -1
    outer loop
      vertex 4.8865 -0.222752 0
      vertex 4.8865 0.222752 0
      vertex 4.92275 0.237763 0
    endloop
  endfacet
  facet normal 0 0 -1
    outer loop
      vertex 4.85305 -0.202253 0
      vertex 4.8865 0.222752 0
      vertex 4.8865 -0.222752 0
    endloop
  endfacet
  facet normal 0 0 -1
    outer loop
      vertex 4.85305 -0.202253 0
      vertex 4.85305 0.202253 0
      vertex 4.8865 0.222752 0
    endloop
  endfacet
  facet normal 0 0 -1
    outer loop
      vertex 4.82322 -0.176776 0
      vertex 4.85305 0.202253 0
      vertex 4.85305 -0.202253 0
    endloop
  endfacet
  facet normal 0 0 -1
    outer loop
      vertex 4.82322 -0.176776 0
      vertex 4.82322 0.176776 0
      vertex 4.85305 0.202253 0
    endloop
  endfacet
  facet normal 0 0 -1
    outer loop
      vertex 4.79775 -0.146946 0
      vertex 4.82322 0.176776 0
      vertex 4.82322 -0.176776 0
    endloop
  endfacet
  facet normal 0 0 -1
    outer loop
      vertex 4.79775 -0.146946 0
      vertex 4.79775 0.146946 0
      vertex 4.82322 0.176776 0
    endloop
  endfacet
  facet normal 0 0 -1
    outer loop
      vertex 4.77725 -0.113497 0
      vertex 4.79775 0.146946 0
      vertex 4.79775 -0.146946 0
    endloop
  endfacet
  facet normal 0 0 -1
    outer loop
      vertex 4.77725 -0.113497 0
      vertex 4.77725 0.113497 0
      vertex 4.79775 0.146946 0
    endloop
  endfacet
  facet normal 0 0 -1
    outer loop
      vertex 4.76224 -0.0772533 0
      vertex 4.77725 0.113497 0
      vertex 4.77725 -0.113497 0
    endloop
  endfacet
  facet normal 0 0 -1
    outer loop
      vertex 4.76224 -0.0772533 0
      vertex 4.76224 0.0772533 0
      vertex 4.77725 0.113497 0
    endloop
  endfacet
  facet normal 0 0 -1
    outer loop
      vertex 4.75308 -0.0391083 0
      vertex 4.76224 0.0772533 0
      vertex 4.76224 -0.0772533 0
    endloop
  endfacet
  facet normal 0 0 -1
    outer loop
      vertex 4.75308 -0.0391083 0
      vertex 4.75308 0.0391083 0
      vertex 4.76224 0.0772533 0
    endloop
  endfacet
  facet normal 0 -0 -1
    outer loop
      vertex 4.75308 0.0391083 0
      vertex 4.75308 -0.0391083 0
      vertex 4.75 0 0
    endloop
  endfacet
  facet normal -0.852633 0.52251 0
    outer loop
      vertex 4.77725 0.113497 0
      vertex 4.79775 0.146946 2
      vertex 4.79775 0.146946 0
    endloop
  endfacet
  facet normal -0.852633 0.52251 0
    outer loop
      vertex 4.79775 0.146946 2
      vertex 4.77725 0.113497 0
      vertex 4.77725 0.113497 2
    endloop
  endfacet
  facet normal -0.852633 0.52251 0
    outer loop
      vertex 4.77725 0.113497 2.25
      vertex 4.79775 0.146946 5
      vertex 4.79775 0.146946 2.25
    endloop
  endfacet
  facet normal -0.852633 0.52251 0
    outer loop
      vertex 4.79775 0.146946 5
      vertex 4.77725 0.113497 2.25
      vertex 4.77725 0.113497 5
    endloop
  endfacet
  facet normal -0.996918 0.0784494 0
    outer loop
      vertex 4.75 0 0
      vertex 4.75308 0.0391083 2
      vertex 4.75308 0.0391083 0
    endloop
  endfacet
  facet normal -0.996918 0.0784494 0
    outer loop
      vertex 4.75308 0.0391083 2
      vertex 4.75 0 0
      vertex 4.75 0 2
    endloop
  endfacet
  facet normal -0.996918 0.0784494 0
    outer loop
      vertex 4.75 0 2.25
      vertex 4.75308 0.0391083 5
      vertex 4.75308 0.0391083 2.25
    endloop
  endfacet
  facet normal -0.996918 0.0784494 0
    outer loop
      vertex 4.75308 0.0391083 5
      vertex 4.75 0 2.25
      vertex 4.75 0 5
    endloop
  endfacet
  facet normal 0 0 1
    outer loop
      vertex 5.24692 0.0391083 5
      vertex 5.24692 -0.0391083 5
      vertex 5.25 0 5
    endloop
  endfacet
  facet normal 0 0 1
    outer loop
      vertex 5.23776 0.0772533 5
      vertex 5.24692 -0.0391083 5
      vertex 5.24692 0.0391083 5
    endloop
  endfacet
  facet normal 0 0 1
    outer loop
      vertex 5.23776 0.0772533 5
      vertex 5.23776 -0.0772533 5
      vertex 5.24692 -0.0391083 5
    endloop
  endfacet
  facet normal 0 0 1
    outer loop
      vertex 5.22275 0.113497 5
      vertex 5.23776 -0.0772533 5
      vertex 5.23776 0.0772533 5
    endloop
  endfacet
  facet normal 0 0 1
    outer loop
      vertex 5.22275 0.113497 5
      vertex 5.22275 -0.113497 5
      vertex 5.23776 -0.0772533 5
    endloop
  endfacet
  facet normal 0 0 1
    outer loop
      vertex 5.20225 0.146946 5
      vertex 5.22275 -0.113497 5
      vertex 5.22275 0.113497 5
    endloop
  endfacet
  facet normal 0 0 1
    outer loop
      vertex 5.20225 0.146946 5
      vertex 5.20225 -0.146946 5
      vertex 5.22275 -0.113497 5
    endloop
  endfacet
  facet normal 0 0 1
    outer loop
      vertex 5.17678 0.176776 5
      vertex 5.20225 -0.146946 5
      vertex 5.20225 0.146946 5
    endloop
  endfacet
  facet normal 0 0 1
    outer loop
      vertex 5.17678 0.176776 5
      vertex 5.17678 -0.176776 5
      vertex 5.20225 -0.146946 5
    endloop
  endfacet
  facet normal 0 0 1
    outer loop
      vertex 5.14695 0.202253 5
      vertex 5.17678 -0.176776 5
      vertex 5.17678 0.176776 5
    endloop
  endfacet
  facet normal 0 0 1
    outer loop
      vertex 5.14695 0.202253 5
      vertex 5.14695 -0.202253 5
      vertex 5.17678 -0.176776 5
    endloop
  endfacet
  facet normal 0 0 1
    outer loop
      vertex 5.1135 0.222752 5
      vertex 5.14695 -0.202253 5
      vertex 5.14695 0.202253 5
    endloop
  endfacet
  facet normal 0 0 1
    outer loop
      vertex 5.1135 0.222752 5
      vertex 5.1135 -0.222752 5
      vertex 5.14695 -0.202253 5
    endloop
  endfacet
  facet normal 0 0 1
    outer loop
      vertex 5.07725 0.237763 5
      vertex 5.1135 -0.222752 5
      vertex 5.1135 0.222752 5
    endloop
  endfacet
  facet normal 0 0 1
    outer loop
      vertex 5.07725 0.237763 5
      vertex 5.07725 -0.237763 5
      vertex 5.1135 -0.222752 5
    endloop
  endfacet
  facet normal 0 0 1
    outer loop
      vertex 5.03911 0.246922 5
      vertex 5.07725 -0.237763 5
      vertex 5.07725 0.237763 5
    endloop
  endfacet
  facet normal 0 0 1
    outer loop
      vertex 5.03911 0.246922 5
      vertex 5.03911 -0.246922 5
      vertex 5.07725 -0.237763 5
    endloop
  endfacet
  facet normal 0 0 1
    outer loop
      vertex 5 0.25 5
      vertex 5.03911 -0.246922 5
      vertex 5.03911 0.246922 5
    endloop
  endfacet
  facet normal 0 0 1
    outer loop
      vertex 5 0.25 5
      vertex 5 -0.25 5
      vertex 5.03911 -0.246922 5
    endloop
  endfacet
  facet normal -0 0 1
    outer loop
      vertex 4.96089 0.246922 5
      vertex 5 -0.25 5
      vertex 5 0.25 5
    endloop
  endfacet
  facet normal 0 0 1
    outer loop
      vertex 4.96089 0.246922 5
      vertex 4.96089 -0.246922 5
      vertex 5 -0.25 5
    endloop
  endfacet
  facet normal -0 0 1
    outer loop
      vertex 4.92275 0.237763 5
      vertex 4.96089 -0.246922 5
      vertex 4.96089 0.246922 5
    endloop
  endfacet
  facet normal 0 0 1
    outer loop
      vertex 4.92275 0.237763 5
      vertex 4.92275 -0.237763 5
      vertex 4.96089 -0.246922 5
    endloop
  endfacet
  facet normal -0 0 1
    outer loop
      vertex 4.8865 0.222752 5
      vertex 4.92275 -0.237763 5
      vertex 4.92275 0.237763 5
    endloop
  endfacet
  facet normal 0 0 1
    outer loop
      vertex 4.8865 0.222752 5
      vertex 4.8865 -0.222752 5
      vertex 4.92275 -0.237763 5
    endloop
  endfacet
  facet normal -0 0 1
    outer loop
      vertex 4.85305 0.202253 5
      vertex 4.8865 -0.222752 5
      vertex 4.8865 0.222752 5
    endloop
  endfacet
  facet normal 0 0 1
    outer loop
      vertex 4.85305 0.202253 5
      vertex 4.85305 -0.202253 5
      vertex 4.8865 -0.222752 5
    endloop
  endfacet
  facet normal -0 0 1
    outer loop
      vertex 4.82322 0.176776 5
      vertex 4.85305 -0.202253 5
      vertex 4.85305 0.202253 5
    endloop
  endfacet
  facet normal 0 0 1
    outer loop
      vertex 4.82322 0.176776 5
      vertex 4.82322 -0.176776 5
      vertex 4.85305 -0.202253 5
    endloop
  endfacet
  facet normal -0 0 1
    outer loop
      vertex 4.79775 0.146946 5
      vertex 4.82322 -0.176776 5
      vertex 4.82322 0.176776 5
    endloop
  endfacet
  facet normal 0 0 1
    outer loop
      vertex 4.79775 0.146946 5
      vertex 4.79775 -0.146946 5
      vertex 4.82322 -0.176776 5
    endloop
  endfacet
  facet normal -0 0 1
    outer loop
      vertex 4.77725 0.113497 5
      vertex 4.79775 -0.146946 5
      vertex 4.79775 0.146946 5
    endloop
  endfacet
  facet normal 0 0 1
    outer loop
      vertex 4.77725 0.113497 5
      vertex 4.77725 -0.113497 5
      vertex 4.79775 -0.146946 5
    endloop
  endfacet
  facet normal -0 0 1
    outer loop
      vertex 4.76224 0.0772533 5
      vertex 4.77725 -0.113497 5
      vertex 4.77725 0.113497 5
    endloop
  endfacet
  facet normal 0 0 1
    outer loop
      vertex 4.76224 0.0772533 5
      vertex 4.76224 -0.0772533 5
      vertex 4.77725 -0.113497 5
    endloop
  endfacet
  facet normal -0 0 1
    outer loop
      vertex 4.75308 0.0391083 5
      vertex 4.76224 -0.0772533 5
      vertex 4.76224 0.0772533 5
    endloop
  endfacet
  facet normal 0 0 1
    outer loop
      vertex 4.75308 0.0391083 5
      vertex 4.75308 -0.0391083 5
      vertex 4.76224 -0.0772533 5
    endloop
  endfacet
  facet normal 0 -0 1
    outer loop
      vertex 4.75308 -0.0391083 5
      vertex 4.75308 0.0391083 5
      vertex 4.75 0 5
    endloop
  endfacet
  facet normal -0.52251 0.852633 0
    outer loop
      vertex 4.8865 0.222752 0
      vertex 4.85305 0.202253 2
      vertex 4.8865 0.222752 2
    endloop
  endfacet
  facet normal -0.52251 0.852633 0
    outer loop
      vertex 4.85305 0.202253 2
      vertex 4.8865 0.222752 0
      vertex 4.85305 0.202253 0
    endloop
  endfacet
  facet normal -0.52251 0.852633 0
    outer loop
      vertex 4.8865 0.222752 2.25
      vertex 4.85305 0.202253 5
      vertex 4.8865 0.222752 5
    endloop
  endfacet
  facet normal -0.52251 0.852633 0
    outer loop
      vertex 4.85305 0.202253 5
      vertex 4.8865 0.222752 2.25
      vertex 4.85305 0.202253 2.25
    endloop
  endfacet
  facet normal -0.233453 0.972368 0
    outer loop
      vertex 4.96089 0.246922 0
      vertex 4.92275 0.237763 2
      vertex 4.96089 0.246922 2
    endloop
  endfacet
  facet normal -0.233453 0.972368 0
    outer loop
      vertex 4.92275 0.237763 2
      vertex 4.96089 0.246922 0
      vertex 4.92275 0.237763 0
    endloop
  endfacet
  facet normal -0.233453 0.972368 0
    outer loop
      vertex 4.96089 0.246922 2.25
      vertex 4.92275 0.237763 5
      vertex 4.96089 0.246922 5
    endloop
  endfacet
  facet normal -0.233453 0.972368 0
    outer loop
      vertex 4.92275 0.237763 5
      vertex 4.96089 0.246922 2.25
      vertex 4.92275 0.237763 2.25
    endloop
  endfacet
  facet normal 0.760403 0.649451 0
    outer loop
      vertex 5.20225 0.146946 2
      vertex 5.17678 0.176776 0
      vertex 5.17678 0.176776 2
    endloop
  endfacet
  facet normal 0.760403 0.649451 0
    outer loop
      vertex 5.17678 0.176776 0
      vertex 5.20225 0.146946 2
      vertex 5.20225 0.146946 0
    endloop
  endfacet
  facet normal 0.760403 0.649451 0
    outer loop
      vertex 5.20225 0.146946 5
      vertex 5.17678 0.176776 2.25
      vertex 5.17678 0.176776 5
    endloop
  endfacet
  facet normal 0.760403 0.649451 0
    outer loop
      vertex 5.17678 0.176776 2.25
      vertex 5.20225 0.146946 5
      vertex 5.20225 0.146946 2.25
    endloop
  endfacet
  facet normal 0.382667 0.923886 -0
    outer loop
      vertex 5.1135 0.222752 0
      vertex 5.07725 0.237763 2
      vertex 5.1135 0.222752 2
    endloop
  endfacet
  facet normal 0.382667 0.923886 0
    outer loop
      vertex 5.07725 0.237763 2
      vertex 5.1135 0.222752 0
      vertex 5.07725 0.237763 0
    endloop
  endfacet
  facet normal 0.382667 0.923886 -0
    outer loop
      vertex 5.1135 0.222752 2.25
      vertex 5.07725 0.237763 5
      vertex 5.1135 0.222752 5
    endloop
  endfacet
  facet normal 0.382667 0.923886 0
    outer loop
      vertex 5.07725 0.237763 5
      vertex 5.1135 0.222752 2.25
      vertex 5.07725 0.237763 2.25
    endloop
  endfacet
  facet normal -0.923886 0.382667 0
    outer loop
      vertex 4.76224 0.0772533 0
      vertex 4.77725 0.113497 2
      vertex 4.77725 0.113497 0
    endloop
  endfacet
  facet normal -0.923886 0.382667 0
    outer loop
      vertex 4.77725 0.113497 2
      vertex 4.76224 0.0772533 0
      vertex 4.76224 0.0772533 2
    endloop
  endfacet
  facet normal -0.923886 0.382667 0
    outer loop
      vertex 4.76224 0.0772533 2.25
      vertex 4.77725 0.113497 5
      vertex 4.77725 0.113497 2.25
    endloop
  endfacet
  facet normal -0.923886 0.382667 0
    outer loop
      vertex 4.77725 0.113497 5
      vertex 4.76224 0.0772533 2.25
      vertex 4.76224 0.0772533 5
    endloop
  endfacet
  facet normal -0.996918 -0.0784494 0
    outer loop
      vertex 4.75308 -0.0391083 0
      vertex 4.75 0 2
      vertex 4.75 0 0
    endloop
  endfacet
  facet normal -0.996918 -0.0784494 0
    outer loop
      vertex 4.75 0 2
      vertex 4.75308 -0.0391083 0
      vertex 4.75 0 2.25
    endloop
  endfacet
  facet normal -0.996918 -0.0784494 -0
    outer loop
      vertex 4.75308 -0.0391083 5
      vertex 4.75 0 2.25
      vertex 4.75308 -0.0391083 0
    endloop
  endfacet
  facet normal -0.996918 -0.0784494 0
    outer loop
      vertex 4.75 0 2.25
      vertex 4.75308 -0.0391083 5
      vertex 4.75 0 5
    endloop
  endfacet
  facet normal -0.649451 0.760403 0
    outer loop
      vertex 4.85305 0.202253 0
      vertex 4.82322 0.176776 2
      vertex 4.85305 0.202253 2
    endloop
  endfacet
  facet normal -0.649451 0.760403 0
    outer loop
      vertex 4.82322 0.176776 2
      vertex 4.85305 0.202253 0
      vertex 4.82322 0.176776 0
    endloop
  endfacet
  facet normal -0.649451 0.760403 0
    outer loop
      vertex 4.85305 0.202253 2.25
      vertex 4.82322 0.176776 5
      vertex 4.85305 0.202253 5
    endloop
  endfacet
  facet normal -0.649451 0.760403 0
    outer loop
      vertex 4.82322 0.176776 5
      vertex 4.85305 0.202253 2.25
      vertex 4.82322 0.176776 2.25
    endloop
  endfacet
  facet normal 0.760403 -0.649451 0
    outer loop
      vertex 5.17678 -0.176776 5
      vertex 5.20225 -0.146946 0
      vertex 5.20225 -0.146946 5
    endloop
  endfacet
  facet normal 0.760403 -0.649451 0
    outer loop
      vertex 5.20225 -0.146946 0
      vertex 5.17678 -0.176776 5
      vertex 5.17678 -0.176776 0
    endloop
  endfacet
  facet normal 0.996916 -0.0784736 0
    outer loop
      vertex 5.24692 -0.0391083 5
      vertex 5.25 0 2.25
      vertex 5.25 0 5
    endloop
  endfacet
  facet normal 0.996916 -0.0784736 0
    outer loop
      vertex 5.25 0 2.25
      vertex 5.24692 -0.0391083 5
      vertex 5.25 0 2
    endloop
  endfacet
  facet normal 0.996916 -0.0784736 0
    outer loop
      vertex 5.24692 -0.0391083 0
      vertex 5.25 0 2
      vertex 5.24692 -0.0391083 5
    endloop
  endfacet
  facet normal 0.996916 -0.0784736 0
    outer loop
      vertex 5.25 0 2
      vertex 5.24692 -0.0391083 0
      vertex 5.25 0 0
    endloop
  endfacet
  facet normal -0.52251 -0.852633 0
    outer loop
      vertex 4.85305 -0.202253 0
      vertex 4.8865 -0.222752 5
      vertex 4.85305 -0.202253 5
    endloop
  endfacet
  facet normal -0.52251 -0.852633 -0
    outer loop
      vertex 4.8865 -0.222752 5
      vertex 4.85305 -0.202253 0
      vertex 4.8865 -0.222752 0
    endloop
  endfacet
  facet normal -0.852633 -0.52251 0
    outer loop
      vertex 4.79775 -0.146946 0
      vertex 4.77725 -0.113497 5
      vertex 4.77725 -0.113497 0
    endloop
  endfacet
  facet normal -0.852633 -0.52251 0
    outer loop
      vertex 4.77725 -0.113497 5
      vertex 4.79775 -0.146946 0
      vertex 4.79775 -0.146946 5
    endloop
  endfacet
  facet normal -0.760403 -0.649451 0
    outer loop
      vertex 4.82322 -0.176776 0
      vertex 4.79775 -0.146946 5
      vertex 4.79775 -0.146946 0
    endloop
  endfacet
  facet normal -0.760403 -0.649451 0
    outer loop
      vertex 4.79775 -0.146946 5
      vertex 4.82322 -0.176776 0
      vertex 4.82322 -0.176776 5
    endloop
  endfacet
  facet normal -0.972368 -0.233453 0
    outer loop
      vertex 4.76224 -0.0772533 0
      vertex 4.75308 -0.0391083 5
      vertex 4.75308 -0.0391083 0
    endloop
  endfacet
  facet normal -0.972368 -0.233453 0
    outer loop
      vertex 4.75308 -0.0391083 5
      vertex 4.76224 -0.0772533 0
      vertex 4.76224 -0.0772533 5
    endloop
  endfacet
  facet normal 0.233453 -0.972368 0
    outer loop
      vertex 5.03911 -0.246922 0
      vertex 5.07725 -0.237763 5
      vertex 5.03911 -0.246922 5
    endloop
  endfacet
  facet normal 0.233453 -0.972368 0
    outer loop
      vertex 5.07725 -0.237763 5
      vertex 5.03911 -0.246922 0
      vertex 5.07725 -0.237763 0
    endloop
  endfacet
  facet normal 0.52251 -0.852633 0
    outer loop
      vertex 5.1135 -0.222752 0
      vertex 5.14695 -0.202253 5
      vertex 5.1135 -0.222752 5
    endloop
  endfacet
  facet normal 0.52251 -0.852633 0
    outer loop
      vertex 5.14695 -0.202253 5
      vertex 5.1135 -0.222752 0
      vertex 5.14695 -0.202253 0
    endloop
  endfacet
  facet normal 0.649451 -0.760403 0
    outer loop
      vertex 5.14695 -0.202253 0
      vertex 5.17678 -0.176776 5
      vertex 5.14695 -0.202253 5
    endloop
  endfacet
  facet normal 0.649451 -0.760403 0
    outer loop
      vertex 5.17678 -0.176776 5
      vertex 5.14695 -0.202253 0
      vertex 5.17678 -0.176776 0
    endloop
  endfacet
  facet normal 0.923886 -0.382667 0
    outer loop
      vertex 5.22275 -0.113497 5
      vertex 5.23776 -0.0772533 0
      vertex 5.23776 -0.0772533 5
    endloop
  endfacet
  facet normal 0.923886 -0.382667 0
    outer loop
      vertex 5.23776 -0.0772533 0
      vertex 5.22275 -0.113497 5
      vertex 5.22275 -0.113497 0
    endloop
  endfacet
  facet normal -0.0784717 -0.996916 0
    outer loop
      vertex 4.96089 -0.246922 0
      vertex 5 -0.25 5
      vertex 4.96089 -0.246922 5
    endloop
  endfacet
  facet normal -0.0784717 -0.996916 -0
    outer loop
      vertex 5 -0.25 5
      vertex 4.96089 -0.246922 0
      vertex 5 -0.25 0
    endloop
  endfacet
  facet normal -0.649451 -0.760403 0
    outer loop
      vertex 4.82322 -0.176776 0
      vertex 4.85305 -0.202253 5
      vertex 4.82322 -0.176776 5
    endloop
  endfacet
  facet normal -0.649451 -0.760403 -0
    outer loop
      vertex 4.85305 -0.202253 5
      vertex 4.82322 -0.176776 0
      vertex 4.85305 -0.202253 0
    endloop
  endfacet
  facet normal -0.923886 -0.382667 0
    outer loop
      vertex 4.77725 -0.113497 0
      vertex 4.76224 -0.0772533 5
      vertex 4.76224 -0.0772533 0
    endloop
  endfacet
  facet normal -0.923886 -0.382667 0
    outer loop
      vertex 4.76224 -0.0772533 5
      vertex 4.77725 -0.113497 0
      vertex 4.77725 -0.113497 5
    endloop
  endfacet
  facet normal 0.382667 -0.923886 0
    outer loop
      vertex 5.07725 -0.237763 0
      vertex 5.1135 -0.222752 5
      vertex 5.07725 -0.237763 5
    endloop
  endfacet
  facet normal 0.382667 -0.923886 0
    outer loop
      vertex 5.1135 -0.222752 5
      vertex 5.07725 -0.237763 0
      vertex 5.1135 -0.222752 0
    endloop
  endfacet
  facet normal 0.972368 -0.233453 0
    outer loop
      vertex 5.23776 -0.0772533 5
      vertex 5.24692 -0.0391083 0
      vertex 5.24692 -0.0391083 5
    endloop
  endfacet
  facet normal 0.972368 -0.233453 0
    outer loop
      vertex 5.24692 -0.0391083 0
      vertex 5.23776 -0.0772533 5
      vertex 5.23776 -0.0772533 0
    endloop
  endfacet
  facet normal -0.233453 -0.972368 0
    outer loop
      vertex 4.92275 -0.237763 0
      vertex 4.96089 -0.246922 5
      vertex 4.92275 -0.237763 5
    endloop
  endfacet
  facet normal -0.233453 -0.972368 -0
    outer loop
      vertex 4.96089 -0.246922 5
      vertex 4.92275 -0.237763 0
      vertex 4.96089 -0.246922 0
    endloop
  endfacet
  facet normal -0.382667 -0.923886 0
    outer loop
      vertex 4.8865 -0.222752 0
      vertex 4.92275 -0.237763 5
      vertex 4.8865 -0.222752 5
    endloop
  endfacet
  facet normal -0.382667 -0.923886 -0
    outer loop
      vertex 4.92275 -0.237763 5
      vertex 4.8865 -0.222752 0
      vertex 4.92275 -0.237763 0
    endloop
  endfacet
  facet normal 0 0 -1
    outer loop
      vertex 5.24692 4.96089 0
      vertex 5.24692 5.03911 0
      vertex 5.25 5 0
    endloop
  endfacet
  facet normal 0 0 -1
    outer loop
      vertex 5.23776 4.92275 0
      vertex 5.24692 5.03911 0
      vertex 5.24692 4.96089 0
    endloop
  endfacet
  facet normal 0 0 -1
    outer loop
      vertex 5.23776 4.92275 0
      vertex 5.23776 5.07725 0
      vertex 5.24692 5.03911 0
    endloop
  endfacet
  facet normal 0 0 -1
    outer loop
      vertex 5.22275 4.8865 0
      vertex 5.23776 5.07725 0
      vertex 5.23776 4.92275 0
    endloop
  endfacet
  facet normal 0 0 -1
    outer loop
      vertex 5.22275 4.8865 0
      vertex 5.22275 5.1135 0
      vertex 5.23776 5.07725 0
    endloop
  endfacet
  facet normal 0 0 -1
    outer loop
      vertex 5.20225 4.85305 0
      vertex 5.22275 5.1135 0
      vertex 5.22275 4.8865 0
    endloop
  endfacet
  facet normal 0 0 -1
    outer loop
      vertex 5.20225 4.85305 0
      vertex 5.20225 5.14695 0
      vertex 5.22275 5.1135 0
    endloop
  endfacet
  facet normal 0 0 -1
    outer loop
      vertex 5.17678 4.82322 0
      vertex 5.20225 5.14695 0
      vertex 5.20225 4.85305 0
    endloop
  endfacet
  facet normal 0 0 -1
    outer loop
      vertex 5.17678 4.82322 0
      vertex 5.17678 5.17678 0
      vertex 5.20225 5.14695 0
    endloop
  endfacet
  facet normal 0 0 -1
    outer loop
      vertex 5.14695 4.79775 0
      vertex 5.17678 5.17678 0
      vertex 5.17678 4.82322 0
    endloop
  endfacet
  facet normal 0 0 -1
    outer loop
      vertex 5.14695 4.79775 0
      vertex 5.14695 5.20225 0
      vertex 5.17678 5.17678 0
    endloop
  endfacet
  facet normal 0 0 -1
    outer loop
      vertex 5.1135 4.77725 0
      vertex 5.14695 5.20225 0
      vertex 5.14695 4.79775 0
    endloop
  endfacet
  facet normal 0 0 -1
    outer loop
      vertex 5.1135 4.77725 0
      vertex 5.1135 5.22275 0
      vertex 5.14695 5.20225 0
    endloop
  endfacet
  facet normal 0 0 -1
    outer loop
      vertex 5.07725 4.76224 0
      vertex 5.1135 5.22275 0
      vertex 5.1135 4.77725 0
    endloop
  endfacet
  facet normal 0 0 -1
    outer loop
      vertex 5.07725 4.76224 0
      vertex 5.07725 5.23776 0
      vertex 5.1135 5.22275 0
    endloop
  endfacet
  facet normal 0 0 -1
    outer loop
      vertex 5.03911 4.75308 0
      vertex 5.07725 5.23776 0
      vertex 5.07725 4.76224 0
    endloop
  endfacet
  facet normal 0 0 -1
    outer loop
      vertex 5.03911 4.75308 0
      vertex 5.03911 5.24692 0
      vertex 5.07725 5.23776 0
    endloop
  endfacet
  facet normal 0 0 -1
    outer loop
      vertex 5 4.75 0
      vertex 5.03911 5.24692 0
      vertex 5.03911 4.75308 0
    endloop
  endfacet
  facet normal 0 0 -1
    outer loop
      vertex 5 4.75 0
      vertex 5 5.25 0
      vertex 5.03911 5.24692 0
    endloop
  endfacet
  facet normal 0 0 -1
    outer loop
      vertex 4.96089 4.75308 0
      vertex 5 5.25 0
      vertex 5 4.75 0
    endloop
  endfacet
  facet normal 0 0 -1
    outer loop
      vertex 4.96089 4.75308 0
      vertex 4.96089 5.24692 0
      vertex 5 5.25 0
    endloop
  endfacet
  facet normal 0 0 -1
    outer loop
      vertex 4.92275 4.76224 0
      vertex 4.96089 5.24692 0
      vertex 4.96089 4.75308 0
    endloop
  endfacet
  facet normal 0 0 -1
    outer loop
      vertex 4.92275 4.76224 0
      vertex 4.92275 5.23776 0
      vertex 4.96089 5.24692 0
    endloop
  endfacet
  facet normal 0 0 -1
    outer loop
      vertex 4.8865 4.77725 0
      vertex 4.92275 5.23776 0
      vertex 4.92275 4.76224 0
    endloop
  endfacet
  facet normal 0 0 -1
    outer loop
      vertex 4.8865 4.77725 0
      vertex 4.8865 5.22275 0
      vertex 4.92275 5.23776 0
    endloop
  endfacet
  facet normal 0 0 -1
    outer loop
      vertex 4.85305 4.79775 0
      vertex 4.8865 5.22275 0
      vertex 4.8865 4.77725 0
    endloop
  endfacet
  facet normal 0 0 -1
    outer loop
      vertex 4.85305 4.79775 0
      vertex 4.85305 5.20225 0
      vertex 4.8865 5.22275 0
    endloop
  endfacet
  facet normal 0 0 -1
    outer loop
      vertex 4.82322 4.82322 0
      vertex 4.85305 5.20225 0
      vertex 4.85305 4.79775 0
    endloop
  endfacet
  facet normal 0 0 -1
    outer loop
      vertex 4.82322 4.82322 0
      vertex 4.82322 5.17678 0
      vertex 4.85305 5.20225 0
    endloop
  endfacet
  facet normal 0 0 -1
    outer loop
      vertex 4.79775 4.85305 0
      vertex 4.82322 5.17678 0
      vertex 4.82322 4.82322 0
    endloop
  endfacet
  facet normal 0 0 -1
    outer loop
      vertex 4.79775 4.85305 0
      vertex 4.79775 5.14695 0
      vertex 4.82322 5.17678 0
    endloop
  endfacet
  facet normal 0 0 -1
    outer loop
      vertex 4.77725 4.8865 0
      vertex 4.79775 5.14695 0
      vertex 4.79775 4.85305 0
    endloop
  endfacet
  facet normal 0 0 -1
    outer loop
      vertex 4.77725 4.8865 0
      vertex 4.77725 5.1135 0
      vertex 4.79775 5.14695 0
    endloop
  endfacet
  facet normal 0 0 -1
    outer loop
      vertex 4.76224 4.92275 0
      vertex 4.77725 5.1135 0
      vertex 4.77725 4.8865 0
    endloop
  endfacet
  facet normal 0 0 -1
    outer loop
      vertex 4.76224 4.92275 0
      vertex 4.76224 5.07725 0
      vertex 4.77725 5.1135 0
    endloop
  endfacet
  facet normal 0 0 -1
    outer loop
      vertex 4.75308 4.96089 0
      vertex 4.76224 5.07725 0
      vertex 4.76224 4.92275 0
    endloop
  endfacet
  facet normal 0 0 -1
    outer loop
      vertex 4.75308 4.96089 0
      vertex 4.75308 5.03911 0
      vertex 4.76224 5.07725 0
    endloop
  endfacet
  facet normal 0 -0 -1
    outer loop
      vertex 4.75308 5.03911 0
      vertex 4.75308 4.96089 0
      vertex 4.75 5 0
    endloop
  endfacet
  facet normal 0.52251 0.852633 -0
    outer loop
      vertex 5.14695 5.20225 0
      vertex 5.1135 5.22275 5
      vertex 5.14695 5.20225 5
    endloop
  endfacet
  facet normal 0.52251 0.852633 0
    outer loop
      vertex 5.1135 5.22275 5
      vertex 5.14695 5.20225 0
      vertex 5.1135 5.22275 0
    endloop
  endfacet
  facet normal 0.996916 -0.0784717 0
    outer loop
      vertex 5.24692 4.96089 2
      vertex 5.25 5 0
      vertex 5.25 5 2
    endloop
  endfacet
  facet normal 0.996916 -0.0784717 0
    outer loop
      vertex 5.25 5 0
      vertex 5.24692 4.96089 2
      vertex 5.24692 4.96089 0
    endloop
  endfacet
  facet normal 0.996916 -0.0784717 0
    outer loop
      vertex 5.24692 4.96089 5
      vertex 5.25 5 2.25
      vertex 5.25 5 5
    endloop
  endfacet
  facet normal 0.996916 -0.0784717 0
    outer loop
      vertex 5.25 5 2.25
      vertex 5.24692 4.96089 5
      vertex 5.24692 4.96089 2.25
    endloop
  endfacet
  facet normal -0.0784475 -0.996918 0
    outer loop
      vertex 4.96089 4.75308 0
      vertex 5 4.75 2
      vertex 4.96089 4.75308 2
    endloop
  endfacet
  facet normal -0.0784475 -0.996918 -0
    outer loop
      vertex 5 4.75 2
      vertex 4.96089 4.75308 0
      vertex 5 4.75 0
    endloop
  endfacet
  facet normal -0.0784475 -0.996918 0
    outer loop
      vertex 4.96089 4.75308 2.25
      vertex 5 4.75 5
      vertex 4.96089 4.75308 5
    endloop
  endfacet
  facet normal -0.0784475 -0.996918 -0
    outer loop
      vertex 5 4.75 5
      vertex 4.96089 4.75308 2.25
      vertex 5 4.75 2.25
    endloop
  endfacet
  facet normal -0.382667 0.923886 0
    outer loop
      vertex 4.92275 5.23776 0
      vertex 4.8865 5.22275 5
      vertex 4.92275 5.23776 5
    endloop
  endfacet
  facet normal -0.382667 0.923886 0
    outer loop
      vertex 4.8865 5.22275 5
      vertex 4.92275 5.23776 0
      vertex 4.8865 5.22275 0
    endloop
  endfacet
  facet normal -0.972368 0.233453 0
    outer loop
      vertex 4.75308 5.03911 0
      vertex 4.76224 5.07725 5
      vertex 4.76224 5.07725 0
    endloop
  endfacet
  facet normal -0.972368 0.233453 0
    outer loop
      vertex 4.76224 5.07725 5
      vertex 4.75308 5.03911 0
      vertex 4.75308 5.03911 5
    endloop
  endfacet
  facet normal -0.233453 -0.972368 0
    outer loop
      vertex 4.92275 4.76224 0
      vertex 4.96089 4.75308 2
      vertex 4.92275 4.76224 2
    endloop
  endfacet
  facet normal -0.233453 -0.972368 -0
    outer loop
      vertex 4.96089 4.75308 2
      vertex 4.92275 4.76224 0
      vertex 4.96089 4.75308 0
    endloop
  endfacet
  facet normal -0.233453 -0.972368 0
    outer loop
      vertex 4.92275 4.76224 2.25
      vertex 4.96089 4.75308 5
      vertex 4.92275 4.76224 5
    endloop
  endfacet
  facet normal -0.233453 -0.972368 -0
    outer loop
      vertex 4.96089 4.75308 5
      vertex 4.92275 4.76224 2.25
      vertex 4.96089 4.75308 2.25
    endloop
  endfacet
  facet normal 0.972368 0.233453 0
    outer loop
      vertex 5.24692 5.03911 5
      vertex 5.23776 5.07725 0
      vertex 5.23776 5.07725 5
    endloop
  endfacet
  facet normal 0.972368 0.233453 0
    outer loop
      vertex 5.23776 5.07725 0
      vertex 5.24692 5.03911 5
      vertex 5.24692 5.03911 0
    endloop
  endfacet
  facet normal 0.923886 0.382667 0
    outer loop
      vertex 5.23776 5.07725 5
      vertex 5.22275 5.1135 0
      vertex 5.22275 5.1135 5
    endloop
  endfacet
  facet normal 0.923886 0.382667 0
    outer loop
      vertex 5.22275 5.1135 0
      vertex 5.23776 5.07725 5
      vertex 5.23776 5.07725 0
    endloop
  endfacet
  facet normal 0.852633 0.52251 0
    outer loop
      vertex 5.22275 5.1135 5
      vertex 5.20225 5.14695 0
      vertex 5.20225 5.14695 5
    endloop
  endfacet
  facet normal 0.852633 0.52251 0
    outer loop
      vertex 5.20225 5.14695 0
      vertex 5.22275 5.1135 5
      vertex 5.22275 5.1135 0
    endloop
  endfacet
  facet normal 0.233453 0.972368 -0
    outer loop
      vertex 5.07725 5.23776 0
      vertex 5.03911 5.24692 5
      vertex 5.07725 5.23776 5
    endloop
  endfacet
  facet normal 0.233453 0.972368 0
    outer loop
      vertex 5.03911 5.24692 5
      vertex 5.07725 5.23776 0
      vertex 5.03911 5.24692 0
    endloop
  endfacet
  facet normal -0.0784717 0.996916 0
    outer loop
      vertex 5 5.25 0
      vertex 4.96089 5.24692 5
      vertex 5 5.25 5
    endloop
  endfacet
  facet normal -0.0784717 0.996916 0
    outer loop
      vertex 4.96089 5.24692 5
      vertex 5 5.25 0
      vertex 4.96089 5.24692 0
    endloop
  endfacet
  facet normal -0.996918 -0.0784475 0
    outer loop
      vertex 4.75308 4.96089 0
      vertex 4.75 5 2
      vertex 4.75 5 0
    endloop
  endfacet
  facet normal -0.996918 -0.0784475 0
    outer loop
      vertex 4.75 5 2
      vertex 4.75308 4.96089 0
      vertex 4.75308 4.96089 2
    endloop
  endfacet
  facet normal -0.996918 -0.0784475 0
    outer loop
      vertex 4.75308 4.96089 2.25
      vertex 4.75 5 5
      vertex 4.75 5 2.25
    endloop
  endfacet
  facet normal -0.996918 -0.0784475 0
    outer loop
      vertex 4.75 5 5
      vertex 4.75308 4.96089 2.25
      vertex 4.75308 4.96089 5
    endloop
  endfacet
  facet normal -0.852633 0.52251 0
    outer loop
      vertex 4.77725 5.1135 0
      vertex 4.79775 5.14695 5
      vertex 4.79775 5.14695 0
    endloop
  endfacet
  facet normal -0.852633 0.52251 0
    outer loop
      vertex 4.79775 5.14695 5
      vertex 4.77725 5.1135 0
      vertex 4.77725 5.1135 5
    endloop
  endfacet
  facet normal -0.52251 0.852633 0
    outer loop
      vertex 4.8865 5.22275 0
      vertex 4.85305 5.20225 5
      vertex 4.8865 5.22275 5
    endloop
  endfacet
  facet normal -0.52251 0.852633 0
    outer loop
      vertex 4.85305 5.20225 5
      vertex 4.8865 5.22275 0
      vertex 4.85305 5.20225 0
    endloop
  endfacet
  facet normal -0.233453 0.972368 0
    outer loop
      vertex 4.96089 5.24692 0
      vertex 4.92275 5.23776 5
      vertex 4.96089 5.24692 5
    endloop
  endfacet
  facet normal -0.233453 0.972368 0
    outer loop
      vertex 4.92275 5.23776 5
      vertex 4.96089 5.24692 0
      vertex 4.92275 5.23776 0
    endloop
  endfacet
  facet normal 0.996916 0.0784736 -0
    outer loop
      vertex 5.25 5 2.25
      vertex 5.24692 5.03911 5
      vertex 5.25 5 5
    endloop
  endfacet
  facet normal 0.996916 0.0784736 0
    outer loop
      vertex 5.24692 5.03911 5
      vertex 5.25 5 2.25
      vertex 5.24692 5.03911 0
    endloop
  endfacet
  facet normal 0.996916 0.0784736 -0
    outer loop
      vertex 5.25 5 2
      vertex 5.24692 5.03911 0
      vertex 5.25 5 2.25
    endloop
  endfacet
  facet normal 0.996916 0.0784736 0
    outer loop
      vertex 5.24692 5.03911 0
      vertex 5.25 5 2
      vertex 5.25 5 0
    endloop
  endfacet
  facet normal 0.233453 -0.972368 0
    outer loop
      vertex 5.03911 4.75308 0
      vertex 5.07725 4.76224 2
      vertex 5.03911 4.75308 2
    endloop
  endfacet
  facet normal 0.233453 -0.972368 0
    outer loop
      vertex 5.07725 4.76224 2
      vertex 5.03911 4.75308 0
      vertex 5.07725 4.76224 0
    endloop
  endfacet
  facet normal 0.233453 -0.972368 0
    outer loop
      vertex 5.03911 4.75308 2.25
      vertex 5.07725 4.76224 5
      vertex 5.03911 4.75308 5
    endloop
  endfacet
  facet normal 0.233453 -0.972368 0
    outer loop
      vertex 5.07725 4.76224 5
      vertex 5.03911 4.75308 2.25
      vertex 5.07725 4.76224 2.25
    endloop
  endfacet
  facet normal 0.972368 -0.233453 0
    outer loop
      vertex 5.23776 4.92275 5
      vertex 5.24692 4.96089 2.25
      vertex 5.24692 4.96089 5
    endloop
  endfacet
  facet normal 0.972368 -0.233453 0
    outer loop
      vertex 5.24692 4.96089 2.25
      vertex 5.23776 4.92275 5
      vertex 5.23776 4.92275 2.25
    endloop
  endfacet
  facet normal 0.972368 -0.233453 0
    outer loop
      vertex 5.23776 4.92275 2
      vertex 5.24692 4.96089 0
      vertex 5.24692 4.96089 2
    endloop
  endfacet
  facet normal 0.972368 -0.233453 0
    outer loop
      vertex 5.24692 4.96089 0
      vertex 5.23776 4.92275 2
      vertex 5.23776 4.92275 0
    endloop
  endfacet
  facet normal 0.382667 -0.923886 0
    outer loop
      vertex 5.07725 4.76224 0
      vertex 5.1135 4.77725 2
      vertex 5.07725 4.76224 2
    endloop
  endfacet
  facet normal 0.382667 -0.923886 0
    outer loop
      vertex 5.1135 4.77725 2
      vertex 5.07725 4.76224 0
      vertex 5.1135 4.77725 0
    endloop
  endfacet
  facet normal 0.382667 -0.923886 0
    outer loop
      vertex 5.07725 4.76224 2.25
      vertex 5.1135 4.77725 5
      vertex 5.07725 4.76224 5
    endloop
  endfacet
  facet normal 0.382667 -0.923886 0
    outer loop
      vertex 5.1135 4.77725 5
      vertex 5.07725 4.76224 2.25
      vertex 5.1135 4.77725 2.25
    endloop
  endfacet
  facet normal 0.52251 -0.852633 0
    outer loop
      vertex 5.1135 4.77725 0
      vertex 5.14695 4.79775 2
      vertex 5.1135 4.77725 2
    endloop
  endfacet
  facet normal 0.52251 -0.852633 0
    outer loop
      vertex 5.14695 4.79775 2
      vertex 5.1135 4.77725 0
      vertex 5.14695 4.79775 0
    endloop
  endfacet
  facet normal 0.52251 -0.852633 0
    outer loop
      vertex 5.1135 4.77725 2.25
      vertex 5.14695 4.79775 5
      vertex 5.1135 4.77725 5
    endloop
  endfacet
  facet normal 0.52251 -0.852633 0
    outer loop
      vertex 5.14695 4.79775 5
      vertex 5.1135 4.77725 2.25
      vertex 5.14695 4.79775 2.25
    endloop
  endfacet
  facet normal 0.0784494 -0.996918 0
    outer loop
      vertex 5 4.75 0
      vertex 5.03911 4.75308 2
      vertex 5 4.75 2
    endloop
  endfacet
  facet normal 0.0784494 -0.996918 0
    outer loop
      vertex 5.03911 4.75308 2
      vertex 5 4.75 0
      vertex 5.03911 4.75308 0
    endloop
  endfacet
  facet normal 0.0784494 -0.996918 0
    outer loop
      vertex 5 4.75 2.25
      vertex 5.03911 4.75308 5
      vertex 5 4.75 5
    endloop
  endfacet
  facet normal 0.0784494 -0.996918 0
    outer loop
      vertex 5.03911 4.75308 5
      vertex 5 4.75 2.25
      vertex 5.03911 4.75308 2.25
    endloop
  endfacet
  facet normal -0.52251 -0.852633 0
    outer loop
      vertex 4.85305 4.79775 2.25
      vertex 4.8865 4.77725 5
      vertex 4.85305 4.79775 5
    endloop
  endfacet
  facet normal -0.52251 -0.852633 -0
    outer loop
      vertex 4.8865 4.77725 5
      vertex 4.85305 4.79775 2.25
      vertex 4.8865 4.77725 2.25
    endloop
  endfacet
  facet normal -0.52251 -0.852633 0
    outer loop
      vertex 4.85305 4.79775 0
      vertex 4.8865 4.77725 2
      vertex 4.85305 4.79775 2
    endloop
  endfacet
  facet normal -0.52251 -0.852633 -0
    outer loop
      vertex 4.8865 4.77725 2
      vertex 4.85305 4.79775 0
      vertex 4.8865 4.77725 0
    endloop
  endfacet
  facet normal -0.852633 -0.52251 0
    outer loop
      vertex 4.79775 4.85305 0
      vertex 4.77725 4.8865 2
      vertex 4.77725 4.8865 0
    endloop
  endfacet
  facet normal -0.852633 -0.52251 0
    outer loop
      vertex 4.77725 4.8865 2
      vertex 4.79775 4.85305 0
      vertex 4.79775 4.85305 2
    endloop
  endfacet
  facet normal -0.852633 -0.52251 0
    outer loop
      vertex 4.79775 4.85305 2.25
      vertex 4.77725 4.8865 5
      vertex 4.77725 4.8865 2.25
    endloop
  endfacet
  facet normal -0.852633 -0.52251 0
    outer loop
      vertex 4.77725 4.8865 5
      vertex 4.79775 4.85305 2.25
      vertex 4.79775 4.85305 5
    endloop
  endfacet
  facet normal -0.972368 -0.233453 0
    outer loop
      vertex 4.76224 4.92275 0
      vertex 4.75308 4.96089 2
      vertex 4.75308 4.96089 0
    endloop
  endfacet
  facet normal -0.972368 -0.233453 0
    outer loop
      vertex 4.75308 4.96089 2
      vertex 4.76224 4.92275 0
      vertex 4.76224 4.92275 2
    endloop
  endfacet
  facet normal -0.972368 -0.233453 0
    outer loop
      vertex 4.76224 4.92275 2.25
      vertex 4.75308 4.96089 5
      vertex 4.75308 4.96089 2.25
    endloop
  endfacet
  facet normal -0.972368 -0.233453 0
    outer loop
      vertex 4.75308 4.96089 5
      vertex 4.76224 4.92275 2.25
      vertex 4.76224 4.92275 5
    endloop
  endfacet
  facet normal 0.760403 0.649451 0
    outer loop
      vertex 5.20225 5.14695 5
      vertex 5.17678 5.17678 0
      vertex 5.17678 5.17678 5
    endloop
  endfacet
  facet normal 0.760403 0.649451 0
    outer loop
      vertex 5.17678 5.17678 0
      vertex 5.20225 5.14695 5
      vertex 5.20225 5.14695 0
    endloop
  endfacet
  facet normal 0.649451 0.760403 -0
    outer loop
      vertex 5.17678 5.17678 0
      vertex 5.14695 5.20225 5
      vertex 5.17678 5.17678 5
    endloop
  endfacet
  facet normal 0.649451 0.760403 0
    outer loop
      vertex 5.14695 5.20225 5
      vertex 5.17678 5.17678 0
      vertex 5.14695 5.20225 0
    endloop
  endfacet
  facet normal 0.382667 0.923886 -0
    outer loop
      vertex 5.1135 5.22275 0
      vertex 5.07725 5.23776 5
      vertex 5.1135 5.22275 5
    endloop
  endfacet
  facet normal 0.382667 0.923886 0
    outer loop
      vertex 5.07725 5.23776 5
      vertex 5.1135 5.22275 0
      vertex 5.07725 5.23776 0
    endloop
  endfacet
  facet normal 0.0784736 0.996916 -0
    outer loop
      vertex 5.03911 5.24692 0
      vertex 5 5.25 5
      vertex 5.03911 5.24692 5
    endloop
  endfacet
  facet normal 0.0784736 0.996916 0
    outer loop
      vertex 5 5.25 5
      vertex 5.03911 5.24692 0
      vertex 5 5.25 0
    endloop
  endfacet
  facet normal 0 0 1
    outer loop
      vertex 5.24692 5.03911 5
      vertex 5.24692 4.96089 5
      vertex 5.25 5 5
    endloop
  endfacet
  facet normal 0 0 1
    outer loop
      vertex 5.23776 5.07725 5
      vertex 5.24692 4.96089 5
      vertex 5.24692 5.03911 5
    endloop
  endfacet
  facet normal 0 0 1
    outer loop
      vertex 5.23776 5.07725 5
      vertex 5.23776 4.92275 5
      vertex 5.24692 4.96089 5
    endloop
  endfacet
  facet normal 0 0 1
    outer loop
      vertex 5.22275 5.1135 5
      vertex 5.23776 4.92275 5
      vertex 5.23776 5.07725 5
    endloop
  endfacet
  facet normal 0 0 1
    outer loop
      vertex 5.22275 5.1135 5
      vertex 5.22275 4.8865 5
      vertex 5.23776 4.92275 5
    endloop
  endfacet
  facet normal 0 0 1
    outer loop
      vertex 5.20225 5.14695 5
      vertex 5.22275 4.8865 5
      vertex 5.22275 5.1135 5
    endloop
  endfacet
  facet normal 0 0 1
    outer loop
      vertex 5.20225 5.14695 5
      vertex 5.20225 4.85305 5
      vertex 5.22275 4.8865 5
    endloop
  endfacet
  facet normal 0 0 1
    outer loop
      vertex 5.17678 5.17678 5
      vertex 5.20225 4.85305 5
      vertex 5.20225 5.14695 5
    endloop
  endfacet
  facet normal 0 0 1
    outer loop
      vertex 5.17678 5.17678 5
      vertex 5.17678 4.82322 5
      vertex 5.20225 4.85305 5
    endloop
  endfacet
  facet normal 0 0 1
    outer loop
      vertex 5.14695 5.20225 5
      vertex 5.17678 4.82322 5
      vertex 5.17678 5.17678 5
    endloop
  endfacet
  facet normal 0 0 1
    outer loop
      vertex 5.14695 5.20225 5
      vertex 5.14695 4.79775 5
      vertex 5.17678 4.82322 5
    endloop
  endfacet
  facet normal 0 0 1
    outer loop
      vertex 5.1135 5.22275 5
      vertex 5.14695 4.79775 5
      vertex 5.14695 5.20225 5
    endloop
  endfacet
  facet normal 0 0 1
    outer loop
      vertex 5.1135 5.22275 5
      vertex 5.1135 4.77725 5
      vertex 5.14695 4.79775 5
    endloop
  endfacet
  facet normal 0 0 1
    outer loop
      vertex 5.07725 5.23776 5
      vertex 5.1135 4.77725 5
      vertex 5.1135 5.22275 5
    endloop
  endfacet
  facet normal 0 0 1
    outer loop
      vertex 5.07725 5.23776 5
      vertex 5.07725 4.76224 5
      vertex 5.1135 4.77725 5
    endloop
  endfacet
  facet normal 0 0 1
    outer loop
      vertex 5.03911 5.24692 5
      vertex 5.07725 4.76224 5
      vertex 5.07725 5.23776 5
    endloop
  endfacet
  facet normal 0 0 1
    outer loop
      vertex 5.03911 5.24692 5
      vertex 5.03911 4.75308 5
      vertex 5.07725 4.76224 5
    endloop
  endfacet
  facet normal 0 0 1
    outer loop
      vertex 5 5.25 5
      vertex 5.03911 4.75308 5
      vertex 5.03911 5.24692 5
    endloop
  endfacet
  facet normal 0 0 1
    outer loop
      vertex 5 5.25 5
      vertex 5 4.75 5
      vertex 5.03911 4.75308 5
    endloop
  endfacet
  facet normal -0 0 1
    outer loop
      vertex 4.96089 5.24692 5
      vertex 5 4.75 5
      vertex 5 5.25 5
    endloop
  endfacet
  facet normal 0 0 1
    outer loop
      vertex 4.96089 5.24692 5
      vertex 4.96089 4.75308 5
      vertex 5 4.75 5
    endloop
  endfacet
  facet normal -0 0 1
    outer loop
      vertex 4.92275 5.23776 5
      vertex 4.96089 4.75308 5
      vertex 4.96089 5.24692 5
    endloop
  endfacet
  facet normal 0 0 1
    outer loop
      vertex 4.92275 5.23776 5
      vertex 4.92275 4.76224 5
      vertex 4.96089 4.75308 5
    endloop
  endfacet
  facet normal -0 0 1
    outer loop
      vertex 4.8865 5.22275 5
      vertex 4.92275 4.76224 5
      vertex 4.92275 5.23776 5
    endloop
  endfacet
  facet normal 0 0 1
    outer loop
      vertex 4.8865 5.22275 5
      vertex 4.8865 4.77725 5
      vertex 4.92275 4.76224 5
    endloop
  endfacet
  facet normal -0 0 1
    outer loop
      vertex 4.85305 5.20225 5
      vertex 4.8865 4.77725 5
      vertex 4.8865 5.22275 5
    endloop
  endfacet
  facet normal 0 0 1
    outer loop
      vertex 4.85305 5.20225 5
      vertex 4.85305 4.79775 5
      vertex 4.8865 4.77725 5
    endloop
  endfacet
  facet normal -0 0 1
    outer loop
      vertex 4.82322 5.17678 5
      vertex 4.85305 4.79775 5
      vertex 4.85305 5.20225 5
    endloop
  endfacet
  facet normal 0 0 1
    outer loop
      vertex 4.82322 5.17678 5
      vertex 4.82322 4.82322 5
      vertex 4.85305 4.79775 5
    endloop
  endfacet
  facet normal -0 0 1
    outer loop
      vertex 4.79775 5.14695 5
      vertex 4.82322 4.82322 5
      vertex 4.82322 5.17678 5
    endloop
  endfacet
  facet normal 0 0 1
    outer loop
      vertex 4.79775 5.14695 5
      vertex 4.79775 4.85305 5
      vertex 4.82322 4.82322 5
    endloop
  endfacet
  facet normal -0 0 1
    outer loop
      vertex 4.77725 5.1135 5
      vertex 4.79775 4.85305 5
      vertex 4.79775 5.14695 5
    endloop
  endfacet
  facet normal 0 0 1
    outer loop
      vertex 4.77725 5.1135 5
      vertex 4.77725 4.8865 5
      vertex 4.79775 4.85305 5
    endloop
  endfacet
  facet normal -0 0 1
    outer loop
      vertex 4.76224 5.07725 5
      vertex 4.77725 4.8865 5
      vertex 4.77725 5.1135 5
    endloop
  endfacet
  facet normal 0 0 1
    outer loop
      vertex 4.76224 5.07725 5
      vertex 4.76224 4.92275 5
      vertex 4.77725 4.8865 5
    endloop
  endfacet
  facet normal -0 0 1
    outer loop
      vertex 4.75308 5.03911 5
      vertex 4.76224 4.92275 5
      vertex 4.76224 5.07725 5
    endloop
  endfacet
  facet normal 0 0 1
    outer loop
      vertex 4.75308 5.03911 5
      vertex 4.75308 4.96089 5
      vertex 4.76224 4.92275 5
    endloop
  endfacet
  facet normal 0 -0 1
    outer loop
      vertex 4.75308 4.96089 5
      vertex 4.75308 5.03911 5
      vertex 4.75 5 5
    endloop
  endfacet
  facet normal -0.996918 0.0784494 0
    outer loop
      vertex 4.75 5 2
      vertex 4.75308 5.03911 0
      vertex 4.75 5 0
    endloop
  endfacet
  facet normal -0.996918 0.0784494 0
    outer loop
      vertex 4.75308 5.03911 0
      vertex 4.75 5 2
      vertex 4.75308 5.03911 5
    endloop
  endfacet
  facet normal -0.996918 0.0784494 0
    outer loop
      vertex 4.75 5 2.25
      vertex 4.75308 5.03911 5
      vertex 4.75 5 2
    endloop
  endfacet
  facet normal -0.996918 0.0784494 0
    outer loop
      vertex 4.75308 5.03911 5
      vertex 4.75 5 2.25
      vertex 4.75 5 5
    endloop
  endfacet
  facet normal -0.923886 0.382667 0
    outer loop
      vertex 4.76224 5.07725 0
      vertex 4.77725 5.1135 5
      vertex 4.77725 5.1135 0
    endloop
  endfacet
  facet normal -0.923886 0.382667 0
    outer loop
      vertex 4.77725 5.1135 5
      vertex 4.76224 5.07725 0
      vertex 4.76224 5.07725 5
    endloop
  endfacet
  facet normal -0.649451 0.760403 0
    outer loop
      vertex 4.85305 5.20225 0
      vertex 4.82322 5.17678 5
      vertex 4.85305 5.20225 5
    endloop
  endfacet
  facet normal -0.649451 0.760403 0
    outer loop
      vertex 4.82322 5.17678 5
      vertex 4.85305 5.20225 0
      vertex 4.82322 5.17678 0
    endloop
  endfacet
  facet normal -0.760403 0.649451 0
    outer loop
      vertex 4.79775 5.14695 0
      vertex 4.82322 5.17678 5
      vertex 4.82322 5.17678 0
    endloop
  endfacet
  facet normal -0.760403 0.649451 0
    outer loop
      vertex 4.82322 5.17678 5
      vertex 4.79775 5.14695 0
      vertex 4.79775 5.14695 5
    endloop
  endfacet
  facet normal 0.852633 -0.52251 0
    outer loop
      vertex 5.20225 4.85305 2
      vertex 5.22275 4.8865 0
      vertex 5.22275 4.8865 2
    endloop
  endfacet
  facet normal 0.852633 -0.52251 0
    outer loop
      vertex 5.22275 4.8865 0
      vertex 5.20225 4.85305 2
      vertex 5.20225 4.85305 0
    endloop
  endfacet
  facet normal 0.852633 -0.52251 0
    outer loop
      vertex 5.20225 4.85305 5
      vertex 5.22275 4.8865 2.25
      vertex 5.22275 4.8865 5
    endloop
  endfacet
  facet normal 0.852633 -0.52251 0
    outer loop
      vertex 5.22275 4.8865 2.25
      vertex 5.20225 4.85305 5
      vertex 5.20225 4.85305 2.25
    endloop
  endfacet
  facet normal 0.649451 -0.760403 0
    outer loop
      vertex 5.14695 4.79775 0
      vertex 5.17678 4.82322 2
      vertex 5.14695 4.79775 2
    endloop
  endfacet
  facet normal 0.649451 -0.760403 0
    outer loop
      vertex 5.17678 4.82322 2
      vertex 5.14695 4.79775 0
      vertex 5.17678 4.82322 0
    endloop
  endfacet
  facet normal 0.649451 -0.760403 0
    outer loop
      vertex 5.14695 4.79775 2.25
      vertex 5.17678 4.82322 5
      vertex 5.14695 4.79775 5
    endloop
  endfacet
  facet normal 0.649451 -0.760403 0
    outer loop
      vertex 5.17678 4.82322 5
      vertex 5.14695 4.79775 2.25
      vertex 5.17678 4.82322 2.25
    endloop
  endfacet
  facet normal -0.382667 -0.923886 0
    outer loop
      vertex 4.8865 4.77725 0
      vertex 4.92275 4.76224 2
      vertex 4.8865 4.77725 2
    endloop
  endfacet
  facet normal -0.382667 -0.923886 -0
    outer loop
      vertex 4.92275 4.76224 2
      vertex 4.8865 4.77725 0
      vertex 4.92275 4.76224 0
    endloop
  endfacet
  facet normal -0.382667 -0.923886 0
    outer loop
      vertex 4.8865 4.77725 2.25
      vertex 4.92275 4.76224 5
      vertex 4.8865 4.77725 5
    endloop
  endfacet
  facet normal -0.382667 -0.923886 -0
    outer loop
      vertex 4.92275 4.76224 5
      vertex 4.8865 4.77725 2.25
      vertex 4.92275 4.76224 2.25
    endloop
  endfacet
  facet normal -0.923886 -0.382667 0
    outer loop
      vertex 4.77725 4.8865 0
      vertex 4.76224 4.92275 2
      vertex 4.76224 4.92275 0
    endloop
  endfacet
  facet normal -0.923886 -0.382667 0
    outer loop
      vertex 4.76224 4.92275 2
      vertex 4.77725 4.8865 0
      vertex 4.77725 4.8865 2
    endloop
  endfacet
  facet normal -0.923886 -0.382667 0
    outer loop
      vertex 4.77725 4.8865 2.25
      vertex 4.76224 4.92275 5
      vertex 4.76224 4.92275 2.25
    endloop
  endfacet
  facet normal -0.923886 -0.382667 0
    outer loop
      vertex 4.76224 4.92275 5
      vertex 4.77725 4.8865 2.25
      vertex 4.77725 4.8865 5
    endloop
  endfacet
  facet normal -0.760403 -0.649451 0
    outer loop
      vertex 4.82322 4.82322 0
      vertex 4.79775 4.85305 2
      vertex 4.79775 4.85305 0
    endloop
  endfacet
  facet normal -0.760403 -0.649451 0
    outer loop
      vertex 4.79775 4.85305 2
      vertex 4.82322 4.82322 0
      vertex 4.82322 4.82322 2
    endloop
  endfacet
  facet normal -0.760403 -0.649451 0
    outer loop
      vertex 4.82322 4.82322 2.25
      vertex 4.79775 4.85305 5
      vertex 4.79775 4.85305 2.25
    endloop
  endfacet
  facet normal -0.760403 -0.649451 0
    outer loop
      vertex 4.79775 4.85305 5
      vertex 4.82322 4.82322 2.25
      vertex 4.82322 4.82322 5
    endloop
  endfacet
  facet normal -0.649451 -0.760403 0
    outer loop
      vertex 4.82322 4.82322 2.25
      vertex 4.85305 4.79775 5
      vertex 4.82322 4.82322 5
    endloop
  endfacet
  facet normal -0.649451 -0.760403 -0
    outer loop
      vertex 4.85305 4.79775 5
      vertex 4.82322 4.82322 2.25
      vertex 4.85305 4.79775 2.25
    endloop
  endfacet
  facet normal -0.649451 -0.760403 0
    outer loop
      vertex 4.82322 4.82322 0
      vertex 4.85305 4.79775 2
      vertex 4.82322 4.82322 2
    endloop
  endfacet
  facet normal -0.649451 -0.760403 -0
    outer loop
      vertex 4.85305 4.79775 2
      vertex 4.82322 4.82322 0
      vertex 4.85305 4.79775 0
    endloop
  endfacet
  facet normal 0.923886 -0.382667 0
    outer loop
      vertex 5.22275 4.8865 2
      vertex 5.23776 4.92275 0
      vertex 5.23776 4.92275 2
    endloop
  endfacet
  facet normal 0.923886 -0.382667 0
    outer loop
      vertex 5.23776 4.92275 0
      vertex 5.22275 4.8865 2
      vertex 5.22275 4.8865 0
    endloop
  endfacet
  facet normal 0.923886 -0.382667 0
    outer loop
      vertex 5.22275 4.8865 5
      vertex 5.23776 4.92275 2.25
      vertex 5.23776 4.92275 5
    endloop
  endfacet
  facet normal 0.923886 -0.382667 0
    outer loop
      vertex 5.23776 4.92275 2.25
      vertex 5.22275 4.8865 5
      vertex 5.22275 4.8865 2.25
    endloop
  endfacet
  facet normal 0.760403 -0.649451 0
    outer loop
      vertex 5.17678 4.82322 2
      vertex 5.20225 4.85305 0
      vertex 5.20225 4.85305 2
    endloop
  endfacet
  facet normal 0.760403 -0.649451 0
    outer loop
      vertex 5.20225 4.85305 0
      vertex 5.17678 4.82322 2
      vertex 5.17678 4.82322 0
    endloop
  endfacet
  facet normal 0.760403 -0.649451 0
    outer loop
      vertex 5.17678 4.82322 5
      vertex 5.20225 4.85305 2.25
      vertex 5.20225 4.85305 5
    endloop
  endfacet
  facet normal 0.760403 -0.649451 0
    outer loop
      vertex 5.20225 4.85305 2.25
      vertex 5.17678 4.82322 5
      vertex 5.17678 4.82322 2.25
    endloop
  endfacet
  facet normal -1 0 0
    outer loop
      vertex 4.5 0 2
      vertex 4.5 5 2.25
      vertex 4.5 5 2
    endloop
  endfacet
  facet normal -1 -0 0
    outer loop
      vertex 4.5 5 2.25
      vertex 4.5 0 2
      vertex 4.5 0 2.25
    endloop
  endfacet
  facet normal 0 0 1
    outer loop
      vertex 5.24692 4.96089 2.25
      vertex 5.5 5 2.25
      vertex 5.25 5 2.25
    endloop
  endfacet
  facet normal 0 0 1
    outer loop
      vertex 5.23776 4.92275 2.25
      vertex 5.5 5 2.25
      vertex 5.24692 4.96089 2.25
    endloop
  endfacet
  facet normal 0 0 1
    outer loop
      vertex 5.22275 4.8865 2.25
      vertex 5.5 5 2.25
      vertex 5.23776 4.92275 2.25
    endloop
  endfacet
  facet normal 0 0 1
    outer loop
      vertex 5.5 0 2.25
      vertex 5.24692 0.0391083 2.25
      vertex 5.25 0 2.25
    endloop
  endfacet
  facet normal 0 0 1
    outer loop
      vertex 5.20225 4.85305 2.25
      vertex 5.5 5 2.25
      vertex 5.22275 4.8865 2.25
    endloop
  endfacet
  facet normal 0 0 1
    outer loop
      vertex 5.5 0 2.25
      vertex 5.23776 0.0772533 2.25
      vertex 5.24692 0.0391083 2.25
    endloop
  endfacet
  facet normal 0 0 1
    outer loop
      vertex 5.17678 4.82322 2.25
      vertex 5.5 5 2.25
      vertex 5.20225 4.85305 2.25
    endloop
  endfacet
  facet normal 0 0 1
    outer loop
      vertex 5.5 0 2.25
      vertex 5.22275 0.113497 2.25
      vertex 5.23776 0.0772533 2.25
    endloop
  endfacet
  facet normal 0 0 1
    outer loop
      vertex 5.14695 4.79775 2.25
      vertex 5.5 5 2.25
      vertex 5.17678 4.82322 2.25
    endloop
  endfacet
  facet normal 0 0 1
    outer loop
      vertex 5.5 0 2.25
      vertex 5.20225 0.146946 2.25
      vertex 5.22275 0.113497 2.25
    endloop
  endfacet
  facet normal 0 0 1
    outer loop
      vertex 5.5 5 2.25
      vertex 5.14695 4.79775 2.25
      vertex 5.5 0 2.25
    endloop
  endfacet
  facet normal 0 0 1
    outer loop
      vertex 5.5 0 2.25
      vertex 5.17678 0.176776 2.25
      vertex 5.20225 0.146946 2.25
    endloop
  endfacet
  facet normal -0 0 1
    outer loop
      vertex 5.14695 0.202253 2.25
      vertex 5.5 0 2.25
      vertex 5.14695 4.79775 2.25
    endloop
  endfacet
  facet normal 0 0 1
    outer loop
      vertex 5.5 0 2.25
      vertex 5.14695 0.202253 2.25
      vertex 5.17678 0.176776 2.25
    endloop
  endfacet
  facet normal -0 0 1
    outer loop
      vertex 5.1135 4.77725 2.25
      vertex 5.14695 0.202253 2.25
      vertex 5.14695 4.79775 2.25
    endloop
  endfacet
  facet normal 0 0 1
    outer loop
      vertex 5.1135 4.77725 2.25
      vertex 5.1135 0.222752 2.25
      vertex 5.14695 0.202253 2.25
    endloop
  endfacet
  facet normal -0 0 1
    outer loop
      vertex 5.07725 4.76224 2.25
      vertex 5.1135 0.222752 2.25
      vertex 5.1135 4.77725 2.25
    endloop
  endfacet
  facet normal 0 0 1
    outer loop
      vertex 5.07725 4.76224 2.25
      vertex 5.07725 0.237763 2.25
      vertex 5.1135 0.222752 2.25
    endloop
  endfacet
  facet normal -0 0 1
    outer loop
      vertex 5.03911 4.75308 2.25
      vertex 5.07725 0.237763 2.25
      vertex 5.07725 4.76224 2.25
    endloop
  endfacet
  facet normal 0 0 1
    outer loop
      vertex 5.03911 4.75308 2.25
      vertex 5.03911 0.246922 2.25
      vertex 5.07725 0.237763 2.25
    endloop
  endfacet
  facet normal -0 0 1
    outer loop
      vertex 5 4.75 2.25
      vertex 5.03911 0.246922 2.25
      vertex 5.03911 4.75308 2.25
    endloop
  endfacet
  facet normal 0 0 1
    outer loop
      vertex 5 4.75 2.25
      vertex 5 0.25 2.25
      vertex 5.03911 0.246922 2.25
    endloop
  endfacet
  facet normal 0 0 1
    outer loop
      vertex 4.96089 4.75308 2.25
      vertex 5 0.25 2.25
      vertex 5 4.75 2.25
    endloop
  endfacet
  facet normal 0 0 1
    outer loop
      vertex 4.96089 4.75308 2.25
      vertex 4.96089 0.246922 2.25
      vertex 5 0.25 2.25
    endloop
  endfacet
  facet normal 0 0 1
    outer loop
      vertex 4.92275 4.76224 2.25
      vertex 4.96089 0.246922 2.25
      vertex 4.96089 4.75308 2.25
    endloop
  endfacet
  facet normal 0 0 1
    outer loop
      vertex 4.92275 4.76224 2.25
      vertex 4.92275 0.237763 2.25
      vertex 4.96089 0.246922 2.25
    endloop
  endfacet
  facet normal 0 0 1
    outer loop
      vertex 4.8865 4.77725 2.25
      vertex 4.92275 0.237763 2.25
      vertex 4.92275 4.76224 2.25
    endloop
  endfacet
  facet normal 0 0 1
    outer loop
      vertex 4.8865 4.77725 2.25
      vertex 4.8865 0.222752 2.25
      vertex 4.92275 0.237763 2.25
    endloop
  endfacet
  facet normal 0 0 1
    outer loop
      vertex 4.85305 4.79775 2.25
      vertex 4.8865 0.222752 2.25
      vertex 4.8865 4.77725 2.25
    endloop
  endfacet
  facet normal 0 0 1
    outer loop
      vertex 4.85305 4.79775 2.25
      vertex 4.85305 0.202253 2.25
      vertex 4.8865 0.222752 2.25
    endloop
  endfacet
  facet normal 0 0 1
    outer loop
      vertex 4.5 5 2.25
      vertex 4.85305 4.79775 2.25
      vertex 4.82322 4.82322 2.25
    endloop
  endfacet
  facet normal 0 0 1
    outer loop
      vertex 4.85305 4.79775 2.25
      vertex 4.5 5 2.25
      vertex 4.85305 0.202253 2.25
    endloop
  endfacet
  facet normal 0 0 1
    outer loop
      vertex 4.5 5 2.25
      vertex 4.82322 4.82322 2.25
      vertex 4.79775 4.85305 2.25
    endloop
  endfacet
  facet normal 0 0 1
    outer loop
      vertex 4.5 0 2.25
      vertex 4.85305 0.202253 2.25
      vertex 4.5 5 2.25
    endloop
  endfacet
  facet normal 0 0 1
    outer loop
      vertex 4.5 5 2.25
      vertex 4.79775 4.85305 2.25
      vertex 4.77725 4.8865 2.25
    endloop
  endfacet
  facet normal 0 0 1
    outer loop
      vertex 4.85305 0.202253 2.25
      vertex 4.5 0 2.25
      vertex 4.82322 0.176776 2.25
    endloop
  endfacet
  facet normal 0 0 1
    outer loop
      vertex 4.5 5 2.25
      vertex 4.77725 4.8865 2.25
      vertex 4.76224 4.92275 2.25
    endloop
  endfacet
  facet normal 0 0 1
    outer loop
      vertex 4.82322 0.176776 2.25
      vertex 4.5 0 2.25
      vertex 4.79775 0.146946 2.25
    endloop
  endfacet
  facet normal 0 0 1
    outer loop
      vertex 4.5 5 2.25
      vertex 4.76224 4.92275 2.25
      vertex 4.75308 4.96089 2.25
    endloop
  endfacet
  facet normal 0 0 1
    outer loop
      vertex 4.79775 0.146946 2.25
      vertex 4.5 0 2.25
      vertex 4.77725 0.113497 2.25
    endloop
  endfacet
  facet normal -0 0 1
    outer loop
      vertex 4.5 5 2.25
      vertex 4.75308 4.96089 2.25
      vertex 4.75 5 2.25
    endloop
  endfacet
  facet normal 0 0 1
    outer loop
      vertex 4.77725 0.113497 2.25
      vertex 4.5 0 2.25
      vertex 4.76224 0.0772533 2.25
    endloop
  endfacet
  facet normal 0 0 1
    outer loop
      vertex 4.76224 0.0772533 2.25
      vertex 4.5 0 2.25
      vertex 4.75308 0.0391083 2.25
    endloop
  endfacet
  facet normal 0 0 1
    outer loop
      vertex 4.75308 0.0391083 2.25
      vertex 4.5 0 2.25
      vertex 4.75 0 2.25
    endloop
  endfacet
  facet normal 1 -0 0
    outer loop
      vertex 5.5 0 2.25
      vertex 5.5 5 2
      vertex 5.5 5 2.25
    endloop
  endfacet
  facet normal 1 0 0
    outer loop
      vertex 5.5 5 2
      vertex 5.5 0 2.25
      vertex 5.5 0 2
    endloop
  endfacet
  facet normal 0 1 -0
    outer loop
      vertex 5.5 5 2
      vertex 5.25 5 2.25
      vertex 5.5 5 2.25
    endloop
  endfacet
  facet normal 0 1 0
    outer loop
      vertex 5.25 5 2.25
      vertex 5.5 5 2
      vertex 5.25 5 2
    endloop
  endfacet
  facet normal 0 1 -0
    outer loop
      vertex 4.75 5 2
      vertex 4.5 5 2.25
      vertex 4.75 5 2.25
    endloop
  endfacet
  facet normal 0 1 0
    outer loop
      vertex 4.5 5 2.25
      vertex 4.75 5 2
      vertex 4.5 5 2
    endloop
  endfacet
  facet normal 0 0 -1
    outer loop
      vertex 5.24692 0.0391083 2
      vertex 5.5 0 2
      vertex 5.25 0 2
    endloop
  endfacet
  facet normal 0 0 -1
    outer loop
      vertex 5.23776 0.0772533 2
      vertex 5.5 0 2
      vertex 5.24692 0.0391083 2
    endloop
  endfacet
  facet normal 0 0 -1
    outer loop
      vertex 5.22275 0.113497 2
      vertex 5.5 0 2
      vertex 5.23776 0.0772533 2
    endloop
  endfacet
  facet normal -0 0 -1
    outer loop
      vertex 5.5 5 2
      vertex 5.24692 4.96089 2
      vertex 5.25 5 2
    endloop
  endfacet
  facet normal 0 0 -1
    outer loop
      vertex 5.20225 0.146946 2
      vertex 5.5 0 2
      vertex 5.22275 0.113497 2
    endloop
  endfacet
  facet normal 0 0 -1
    outer loop
      vertex 5.5 5 2
      vertex 5.23776 4.92275 2
      vertex 5.24692 4.96089 2
    endloop
  endfacet
  facet normal 0 0 -1
    outer loop
      vertex 5.17678 0.176776 2
      vertex 5.5 0 2
      vertex 5.20225 0.146946 2
    endloop
  endfacet
  facet normal 0 0 -1
    outer loop
      vertex 5.5 5 2
      vertex 5.22275 4.8865 2
      vertex 5.23776 4.92275 2
    endloop
  endfacet
  facet normal 0 0 -1
    outer loop
      vertex 5.14695 0.202253 2
      vertex 5.5 0 2
      vertex 5.17678 0.176776 2
    endloop
  endfacet
  facet normal 0 0 -1
    outer loop
      vertex 5.5 5 2
      vertex 5.20225 4.85305 2
      vertex 5.22275 4.8865 2
    endloop
  endfacet
  facet normal 0 0 -1
    outer loop
      vertex 5.5 0 2
      vertex 5.14695 0.202253 2
      vertex 5.5 5 2
    endloop
  endfacet
  facet normal 0 0 -1
    outer loop
      vertex 5.5 5 2
      vertex 5.17678 4.82322 2
      vertex 5.20225 4.85305 2
    endloop
  endfacet
  facet normal 0 0 -1
    outer loop
      vertex 5.14695 4.79775 2
      vertex 5.5 5 2
      vertex 5.14695 0.202253 2
    endloop
  endfacet
  facet normal 0 0 -1
    outer loop
      vertex 5.5 5 2
      vertex 5.14695 4.79775 2
      vertex 5.17678 4.82322 2
    endloop
  endfacet
  facet normal 0 0 -1
    outer loop
      vertex 5.1135 0.222752 2
      vertex 5.14695 4.79775 2
      vertex 5.14695 0.202253 2
    endloop
  endfacet
  facet normal 0 0 -1
    outer loop
      vertex 5.1135 0.222752 2
      vertex 5.1135 4.77725 2
      vertex 5.14695 4.79775 2
    endloop
  endfacet
  facet normal 0 0 -1
    outer loop
      vertex 5.07725 0.237763 2
      vertex 5.1135 4.77725 2
      vertex 5.1135 0.222752 2
    endloop
  endfacet
  facet normal 0 0 -1
    outer loop
      vertex 5.07725 0.237763 2
      vertex 5.07725 4.76224 2
      vertex 5.1135 4.77725 2
    endloop
  endfacet
  facet normal 0 0 -1
    outer loop
      vertex 5.03911 0.246922 2
      vertex 5.07725 4.76224 2
      vertex 5.07725 0.237763 2
    endloop
  endfacet
  facet normal 0 0 -1
    outer loop
      vertex 5.03911 0.246922 2
      vertex 5.03911 4.75308 2
      vertex 5.07725 4.76224 2
    endloop
  endfacet
  facet normal 0 0 -1
    outer loop
      vertex 5 0.25 2
      vertex 5.03911 4.75308 2
      vertex 5.03911 0.246922 2
    endloop
  endfacet
  facet normal 0 0 -1
    outer loop
      vertex 5 0.25 2
      vertex 5 4.75 2
      vertex 5.03911 4.75308 2
    endloop
  endfacet
  facet normal 0 0 -1
    outer loop
      vertex 4.96089 0.246922 2
      vertex 5 4.75 2
      vertex 5 0.25 2
    endloop
  endfacet
  facet normal 0 0 -1
    outer loop
      vertex 4.96089 0.246922 2
      vertex 4.96089 4.75308 2
      vertex 5 4.75 2
    endloop
  endfacet
  facet normal 0 0 -1
    outer loop
      vertex 4.92275 0.237763 2
      vertex 4.96089 4.75308 2
      vertex 4.96089 0.246922 2
    endloop
  endfacet
  facet normal 0 0 -1
    outer loop
      vertex 4.92275 0.237763 2
      vertex 4.92275 4.76224 2
      vertex 4.96089 4.75308 2
    endloop
  endfacet
  facet normal 0 0 -1
    outer loop
      vertex 4.8865 0.222752 2
      vertex 4.92275 4.76224 2
      vertex 4.92275 0.237763 2
    endloop
  endfacet
  facet normal 0 0 -1
    outer loop
      vertex 4.8865 0.222752 2
      vertex 4.8865 4.77725 2
      vertex 4.92275 4.76224 2
    endloop
  endfacet
  facet normal 0 0 -1
    outer loop
      vertex 4.85305 0.202253 2
      vertex 4.8865 4.77725 2
      vertex 4.8865 0.222752 2
    endloop
  endfacet
  facet normal 0 0 -1
    outer loop
      vertex 4.85305 0.202253 2
      vertex 4.85305 4.79775 2
      vertex 4.8865 4.77725 2
    endloop
  endfacet
  facet normal 0 0 -1
    outer loop
      vertex 4.5 0 2
      vertex 4.85305 0.202253 2
      vertex 4.82322 0.176776 2
    endloop
  endfacet
  facet normal -0 0 -1
    outer loop
      vertex 4.85305 0.202253 2
      vertex 4.5 0 2
      vertex 4.85305 4.79775 2
    endloop
  endfacet
  facet normal 0 0 -1
    outer loop
      vertex 4.5 0 2
      vertex 4.82322 0.176776 2
      vertex 4.79775 0.146946 2
    endloop
  endfacet
  facet normal 0 0 -1
    outer loop
      vertex 4.5 5 2
      vertex 4.85305 4.79775 2
      vertex 4.5 0 2
    endloop
  endfacet
  facet normal 0 0 -1
    outer loop
      vertex 4.5 0 2
      vertex 4.79775 0.146946 2
      vertex 4.77725 0.113497 2
    endloop
  endfacet
  facet normal 0 0 -1
    outer loop
      vertex 4.85305 4.79775 2
      vertex 4.5 5 2
      vertex 4.82322 4.82322 2
    endloop
  endfacet
  facet normal 0 0 -1
    outer loop
      vertex 4.5 0 2
      vertex 4.77725 0.113497 2
      vertex 4.76224 0.0772533 2
    endloop
  endfacet
  facet normal 0 0 -1
    outer loop
      vertex 4.82322 4.82322 2
      vertex 4.5 5 2
      vertex 4.79775 4.85305 2
    endloop
  endfacet
  facet normal 0 0 -1
    outer loop
      vertex 4.5 0 2
      vertex 4.76224 0.0772533 2
      vertex 4.75308 0.0391083 2
    endloop
  endfacet
  facet normal 0 0 -1
    outer loop
      vertex 4.79775 4.85305 2
      vertex 4.5 5 2
      vertex 4.77725 4.8865 2
    endloop
  endfacet
  facet normal 0 0 -1
    outer loop
      vertex 4.5 0 2
      vertex 4.75308 0.0391083 2
      vertex 4.75 0 2
    endloop
  endfacet
  facet normal 0 0 -1
    outer loop
      vertex 4.77725 4.8865 2
      vertex 4.5 5 2
      vertex 4.76224 4.92275 2
    endloop
  endfacet
  facet normal 0 0 -1
    outer loop
      vertex 4.76224 4.92275 2
      vertex 4.5 5 2
      vertex 4.75308 4.96089 2
    endloop
  endfacet
  facet normal 0 0 -1
    outer loop
      vertex 4.75308 4.96089 2
      vertex 4.5 5 2
      vertex 4.75 5 2
    endloop
  endfacet
  facet normal 0 -1 0
    outer loop
      vertex 5.25 0 2
      vertex 5.5 0 2.25
      vertex 5.25 0 2.25
    endloop
  endfacet
  facet normal 0 -1 -0
    outer loop
      vertex 5.5 0 2.25
      vertex 5.25 0 2
      vertex 5.5 0 2
    endloop
  endfacet
  facet normal 0 -1 0
    outer loop
      vertex 4.5 0 2
      vertex 4.75 0 2.25
      vertex 4.5 0 2.25
    endloop
  endfacet
  facet normal 0 -1 -0
    outer loop
      vertex 4.75 0 2.25
      vertex 4.5 0 2
      vertex 4.75 0 2
    endloop
  endfacet
endsolid OpenSCAD_Model
