####
#
# OBJ File Generated by Meshlab
#
####
# Object carousel-bottom.obj
#
# Vertices: 164
# Faces: 324
#
####
vn 0.996636 0.081879 0.003459
v 4.000000 -120.000000 96.000000
vn 0.599939 0.254595 0.758456
v 3.541820 -118.140999 8.000000
vn 0.844359 0.535619 0.013045
v 3.541820 -118.140999 96.000000
vn 0.034462 -0.002831 0.999402
v 4.000000 -120.000000 8.000000
vn -0.977383 -0.157452 0.141177
v -3.883770 -120.957001 8.000000
vn -0.987187 0.159031 0.013044
v -3.883770 -119.042999 96.000000
vn -0.182517 0.061233 0.981294
v -3.883770 -119.042999 8.000000
vn -0.948061 -0.318069 0.003459
v -3.883770 -120.957001 96.000000
vn 0.000351 0.009045 0.999959
v 0.482146 -116.028999 8.000000
vn -0.276039 0.957541 0.083168
v -1.418420 -116.260002 96.000000
vn 0.200715 0.976112 0.083174
v 0.482146 -116.028999 96.000000
vn -0.221630 0.465156 0.857036
v -1.418420 -116.260002 8.000000
vn 0.420423 0.609070 0.672516
v 2.272260 -116.708000 8.000000
vn 0.566442 0.820610 0.075783
v 2.272260 -116.708000 96.000000
vn -0.747994 0.662619 0.037967
v -2.994040 -117.348000 96.000000
vn -0.018761 0.016620 0.999686
v -2.994040 -117.348000 8.000000
vn 0.920126 -0.390472 0.030007
v 3.541820 -121.859001 96.000000
vn 0.335195 -0.212630 0.917841
v 3.541820 -121.859001 8.000000
vn -0.738869 -0.654535 0.160177
v -2.994040 -122.652000 8.000000
vn -0.747771 -0.662422 0.045126
v -2.994040 -122.652000 96.000000
vn 0.567294 -0.821844 0.052442
v 2.272260 -123.292000 96.000000
vn 0.536419 -0.777116 0.329159
v 2.272260 -123.292000 8.000000
vn 0.038630 -0.995366 0.088055
v 0.482146 -123.971001 96.000000
vn -0.429091 -0.900576 0.069603
v -1.418420 -123.739998 96.000000
vn 0.654491 -0.163258 -0.738233
v 148.677994 -31.602600 0.000000
vn 0.342695 0.060387 -0.937504
v 148.677994 31.602600 0.000000
vn 0.963203 -0.033750 -0.266647
v 152.000000 0.000000 0.000000
vn 0.176053 -0.085889 -0.980626
v 138.858994 -61.824001 0.000000
vn 0.116021 0.046858 -0.992141
v 138.858994 61.824001 0.000000
vn 0.069241 -0.054110 -0.996131
v 122.971001 -89.343399 0.000000
vn 0.054872 0.037002 -0.997808
v 122.971001 89.343399 0.000000
vn 0.023464 -0.026059 -0.999385
v 101.708000 -112.958000 0.000000
vn 0.038869 0.043169 -0.998311
v 101.708000 112.958000 0.000000
vn 0.019881 -0.031808 -0.999296
v 76.000000 -131.636002 0.000000
vn 0.015613 0.029371 -0.999447
v 76.000000 131.636002 0.000000
vn 0.010372 -0.028487 -0.999540
v 46.970600 -144.561005 0.000000
vn 0.007806 0.027235 -0.999599
v 46.970600 144.561005 0.000000
vn 0.003775 -0.026839 -0.999633
v 15.888300 -151.167007 0.000000
vn 0.001846 0.026451 -0.999648
v 15.888300 151.167007 0.000000
vn -0.001846 -0.026451 -0.999648
v -15.888300 -151.167007 0.000000
vn -0.003775 0.026839 -0.999633
v -15.888300 151.167007 0.000000
vn -0.007806 -0.027235 -0.999599
v -46.970600 -144.561005 0.000000
vn -0.010372 0.028487 -0.999540
v -46.970600 144.561005 0.000000
vn -0.015613 -0.029371 -0.999447
v -76.000000 -131.636002 0.000000
vn -0.019881 0.031808 -0.999296
v -76.000000 131.636002 0.000000
vn -0.038869 -0.043169 -0.998311
v -101.708000 -112.958000 0.000000
vn -0.023464 0.026059 -0.999385
v -101.708000 112.958000 0.000000
vn -0.054872 -0.037002 -0.997808
v -122.971001 -89.343399 0.000000
vn -0.069241 0.054110 -0.996131
v -122.971001 89.343399 0.000000
vn -0.116021 -0.046858 -0.992141
v -138.858994 -61.824001 0.000000
vn -0.176053 0.085889 -0.980626
v -138.858994 61.824001 0.000000
vn -0.342695 -0.060387 -0.937504
v -148.677994 -31.602600 0.000000
vn -0.654491 0.163258 -0.738233
v -148.677994 31.602600 0.000000
vn -0.963203 0.033750 -0.266647
v -152.000000 0.000000 0.000000
vn -0.269810 -0.935933 0.226345
v -1.418420 -123.739998 8.000000
vn 0.090515 -0.440190 0.893331
v 0.482146 -123.971001 8.000000
vn 0.996636 0.081879 0.003459
v 4.000000 120.000000 96.000000
vn 0.365414 0.155070 0.917838
v 3.541820 121.859001 8.000000
vn 0.844359 0.535619 0.013045
v 3.541820 121.859001 96.000000
vn 0.947996 -0.077883 0.308606
v 4.000000 120.000000 8.000000
vn -0.090470 -0.014574 0.995793
v -3.883770 119.042999 8.000000
vn -0.987187 0.159031 0.013044
v -3.883770 120.957001 96.000000
vn -0.938573 0.314885 0.141169
v -3.883770 120.957001 8.000000
vn -0.948061 -0.318069 0.003459
v -3.883770 119.042999 96.000000
vn 0.017428 0.449061 0.893331
v 0.482146 123.971001 8.000000
vn -0.276039 0.957541 0.083168
v -1.418420 123.739998 96.000000
vn 0.200715 0.976112 0.083174
v 0.482146 123.971001 96.000000
vn -0.418972 0.879337 0.226337
v -1.418420 123.739998 8.000000
vn 0.559639 0.810754 0.171704
v 2.272260 123.292000 8.000000
vn 0.566442 0.820610 0.075783
v 2.272260 123.292000 96.000000
vn -0.747994 0.662619 0.037967
v -2.994040 122.652000 96.000000
vn -0.711976 0.630712 0.308695
v -2.994040 122.652000 8.000000
vn 0.920126 -0.390472 0.030007
v 3.541820 118.140999 96.000000
vn 0.265996 -0.168734 0.949092
v 3.541820 118.140999 8.000000
vn -0.550118 -0.487328 0.678145
v -2.994040 117.348000 8.000000
vn -0.747771 -0.662422 0.045126
v -2.994040 117.348000 96.000000
vn 0.567294 -0.821844 0.052442
v 2.272260 116.708000 96.000000
vn 0.013929 -0.020179 0.999699
v 2.272260 116.708000 8.000000
vn 0.038630 -0.995366 0.088055
v 0.482146 116.028999 96.000000
vn -0.429091 -0.900576 0.069603
v -1.418420 116.260002 96.000000
vn -0.183787 -0.637532 0.748181
v -1.418420 116.260002 8.000000
vn 0.001816 -0.008830 0.999959
v 0.482146 116.028999 8.000000
vn 0.996638 0.081852 0.003458
v -116.000000 0.000000 96.000000
vn 0.037207 0.015790 0.999183
v -116.458000 1.858890 8.000000
vn 0.844302 0.535709 0.013045
v -116.458000 1.858890 96.000000
vn 0.014569 -0.001196 0.999893
v -116.000000 0.000000 8.000000
vn -0.967273 -0.155834 0.200245
v -123.884003 -0.957262 8.000000
vn -0.987185 0.159042 0.013048
v -123.884003 0.957262 96.000000
vn -0.928855 0.311662 0.200240
v -123.884003 0.957262 8.000000
vn -0.948050 -0.318103 0.003460
v -123.884003 -0.957262 96.000000
vn 0.013739 0.353347 0.935392
v -119.517998 3.970830 8.000000
vn -0.275927 0.957574 0.083170
v -121.417999 3.740060 96.000000
vn 0.200748 0.976106 0.083170
v -119.517998 3.970830 96.000000
vn -0.415132 0.871708 0.260366
v -121.417999 3.740060 8.000000
vn 0.203670 0.295098 0.933507
v -117.727997 3.291930 8.000000
vn 0.566390 0.820645 0.075787
v -117.727997 3.291930 96.000000
vn -0.747883 0.662744 0.037978
v -122.994003 2.652490 96.000000
vn -0.226950 0.201114 0.952915
v -122.994003 2.652490 8.000000
vn 0.920116 -0.390495 0.030014
v -116.458000 -1.858890 96.000000
vn 0.030576 -0.019401 0.999344
v -116.458000 -1.858890 8.000000
vn 0.567242 -0.821880 0.052439
v -117.727997 -3.291930 96.000000
vn 0.107131 -0.155222 0.982053
v -117.727997 -3.291930 8.000000
vn -0.401846 -0.356100 0.843631
v -122.994003 -2.652490 8.000000
vn -0.747660 -0.662546 0.045143
v -122.994003 -2.652490 96.000000
vn 0.038703 -0.995364 0.088053
v -119.517998 -3.970830 96.000000
vn -0.428918 -0.900657 0.069612
v -121.417999 -3.740060 96.000000
vn -0.267334 -0.927751 0.260405
v -121.417999 -3.740060 8.000000
vn 0.071239 -0.346390 0.935382
v -119.517998 -3.970830 8.000000
vn 0.996638 0.081852 0.003458
v 124.000000 0.000000 96.000000
vn 0.400506 0.169974 0.900391
v 123.542000 1.858890 8.000000
vn 0.844302 0.535709 0.013045
v 123.542000 1.858890 96.000000
vn 0.975092 -0.080082 0.206838
v 124.000000 0.000000 8.000000
vn -0.017231 -0.002776 0.999848
v 116.115997 -0.957262 8.000000
vn -0.987185 0.159042 0.013048
v 116.115997 0.957262 96.000000
vn -0.496098 0.166458 0.852161
v 116.115997 0.957262 8.000000
vn -0.948050 -0.318103 0.003460
v 116.115997 -0.957262 96.000000
vn 0.013781 0.354420 0.934985
v 120.482002 3.970830 8.000000
vn -0.275927 0.957574 0.083170
v 118.582001 3.740060 96.000000
vn 0.200748 0.976106 0.083170
v 120.482002 3.970830 96.000000
vn -0.405093 0.850629 0.335157
v 118.582001 3.740060 8.000000
vn 0.555034 0.804191 0.212633
v 122.272003 3.291930 8.000000
vn 0.566390 0.820645 0.075787
v 122.272003 3.291930 96.000000
vn -0.747883 0.662744 0.037978
v 117.005997 2.652490 96.000000
vn -0.016540 0.014657 0.999756
v 117.005997 2.652490 8.000000
vn 0.920116 -0.390495 0.030014
v 123.542000 -1.858890 96.000000
vn 0.367390 -0.233109 0.900381
v 123.542000 -1.858890 8.000000
vn -0.033602 -0.029776 0.998992
v 117.005997 -2.652490 8.000000
vn -0.747660 -0.662546 0.045143
v 117.005997 -2.652490 96.000000
vn 0.567242 -0.821880 0.052439
v 122.272003 -3.291930 96.000000
vn 0.520835 -0.754639 0.399063
v 122.272003 -3.291930 8.000000
vn 0.038703 -0.995364 0.088053
v 120.482002 -3.970830 96.000000
vn -0.428918 -0.900657 0.069612
v 118.582001 -3.740060 96.000000
vn -0.260867 -0.905310 0.335205
v 118.582001 -3.740060 8.000000
vn 0.071456 -0.347442 0.934975
v 120.482002 -3.970830 8.000000
vn 0.372326 0.013046 0.928010
v 152.000000 0.000000 8.000000
vn 0.321765 0.080262 0.943412
v 148.677994 31.602600 8.000000
vn -0.322048 0.056749 0.945021
v -148.677994 31.602600 8.000000
vn -0.360358 -0.012627 0.932729
v -152.000000 0.000000 8.000000
vn -0.005111 0.073225 0.997302
v -15.888300 151.167007 8.000000
vn 0.050049 0.355864 0.933196
v 15.888300 151.167007 8.000000
vn 0.025025 -0.358495 0.933196
v 15.888300 -151.167007 8.000000
vn -0.046810 -0.332833 0.941823
v -15.888300 -151.167007 8.000000
vn 0.123191 0.197095 0.972614
v 76.000000 131.636002 8.000000
vn 0.023072 0.025624 0.999405
v 101.708000 112.958000 8.000000
vn -0.143834 0.159745 0.976623
v -101.708000 112.958000 8.000000
vn -0.169797 0.114500 0.978805
v -122.971001 89.343399 8.000000
vn -0.246297 0.099474 0.964076
v -138.858994 61.824001 8.000000
vn -0.060641 0.114079 0.991619
v -76.000000 131.636002 8.000000
vn -0.028798 0.100480 0.994522
v -46.970600 144.561005 8.000000
vn 0.232020 0.113193 0.966103
v 138.858994 61.824001 8.000000
vn 0.165812 0.129578 0.977607
v 122.971001 89.343399 8.000000
vn 0.100093 0.274908 0.956246
v 46.970600 144.561005 8.000000
vn -0.023086 -0.025639 0.999405
v -101.708000 -112.958000 8.000000
vn -0.161367 -0.126104 0.978805
v -122.971001 -89.343399 8.000000
vn -0.238732 -0.116467 0.964076
v -138.858994 -61.824001 8.000000
vn -0.317287 -0.079145 0.945021
v -148.677994 -31.602600 8.000000
vn 0.084605 -0.295192 0.951685
v 46.970600 -144.561005 8.000000
vn -0.124533 -0.199243 0.972005
v -76.000000 -131.636002 8.000000
vn -0.104120 -0.285967 0.952566
v -46.970600 -144.561005 8.000000
vn 0.326593 -0.057550 0.943411
v 148.677994 -31.602600 8.000000
vn 0.239373 -0.096677 0.966102
v 138.858994 -61.824001 8.000000
vn 0.174474 -0.117654 0.977607
v 122.971001 -89.343399 8.000000
vn 0.047209 -0.052431 0.997508
v 101.708000 -112.958000 8.000000
vn 0.118363 -0.222665 0.967683
v 76.000000 -131.636002 8.000000
# 164 vertices, 0 vertices normals

f 1//1 2//2 3//3
f 2//2 1//1 4//4
f 5//5 6//6 7//7
f 6//6 5//5 8//8
f 9//9 10//10 11//11
f 10//10 9//9 12//12
f 3//3 13//13 14//14
f 13//13 3//3 2//2
f 12//12 15//15 10//10
f 15//15 12//12 16//16
f 17//17 4//4 1//1
f 4//4 17//17 18//18
f 13//13 11//11 14//14
f 11//11 13//13 9//9
f 19//19 8//8 5//5
f 8//8 19//19 20//20
f 21//21 18//18 17//17
f 18//18 21//21 22//22
f 3//3 17//17 1//1
f 14//14 17//17 3//3
f 14//14 21//21 17//17
f 11//11 21//21 14//14
f 11//11 23//23 21//21
f 10//10 23//23 11//11
f 10//10 24//24 23//23
f 15//15 24//24 10//10
f 15//15 20//20 24//24
f 6//6 20//20 15//15
f 20//20 6//6 8//8
f 7//7 15//15 16//16
f 15//15 7//7 6//6
f 25//25 26//26 27//27
f 28//28 26//26 25//25
f 28//28 29//29 26//26
f 30//30 29//29 28//28
f 30//30 31//31 29//29
f 32//32 31//31 30//30
f 32//32 33//33 31//31
f 34//34 33//33 32//32
f 34//34 35//35 33//33
f 36//36 35//35 34//34
f 36//36 37//37 35//35
f 38//38 37//37 36//36
f 38//38 39//39 37//37
f 40//40 39//39 38//38
f 40//40 41//41 39//39
f 42//42 41//41 40//40
f 42//42 43//43 41//41
f 44//44 43//43 42//42
f 44//44 45//45 43//43
f 46//46 45//45 44//44
f 46//46 47//47 45//45
f 48//48 47//47 46//46
f 48//48 49//49 47//47
f 50//50 49//49 48//48
f 50//50 51//51 49//49
f 52//52 51//51 50//50
f 52//52 53//53 51//51
f 53//53 52//52 54//54
f 19//19 24//24 20//20
f 24//24 19//19 55//55
f 56//56 21//21 23//23
f 21//21 56//56 22//22
f 55//55 23//23 24//24
f 23//23 55//55 56//56
f 57//57 58//58 59//59
f 58//58 57//57 60//60
f 61//61 62//62 63//63
f 62//62 61//61 64//64
f 65//65 66//66 67//67
f 66//66 65//65 68//68
f 59//59 69//69 70//70
f 69//69 59//59 58//58
f 68//68 71//71 66//66
f 71//71 68//68 72//72
f 73//73 60//60 57//57
f 60//60 73//73 74//74
f 69//69 67//67 70//70
f 67//67 69//69 65//65
f 75//75 64//64 61//61
f 64//64 75//75 76//76
f 77//77 74//74 73//73
f 74//74 77//77 78//78
f 59//59 73//73 57//57
f 70//70 73//73 59//59
f 70//70 77//77 73//73
f 67//67 77//77 70//70
f 67//67 79//79 77//77
f 66//66 79//79 67//67
f 66//66 80//80 79//79
f 71//71 80//80 66//66
f 71//71 76//76 80//80
f 62//62 76//76 71//71
f 76//76 62//62 64//64
f 63//63 71//71 72//72
f 71//71 63//63 62//62
f 75//75 80//80 76//76
f 80//80 75//75 81//81
f 82//82 77//77 79//79
f 77//77 82//82 78//78
f 81//81 79//79 80//80
f 79//79 81//81 82//82
f 83//83 84//84 85//85
f 84//84 83//83 86//86
f 87//87 88//88 89//89
f 88//88 87//87 90//90
f 91//91 92//92 93//93
f 92//92 91//91 94//94
f 85//85 95//95 96//96
f 95//95 85//85 84//84
f 94//94 97//97 92//92
f 97//97 94//94 98//98
f 95//95 93//93 96//96
f 93//93 95//95 91//91
f 99//99 86//86 83//83
f 86//86 99//99 100//100
f 101//101 100//100 99//99
f 100//100 101//101 102//102
f 103//103 90//90 87//87
f 90//90 103//103 104//104
f 85//85 99//99 83//83
f 96//96 99//99 85//85
f 96//96 101//101 99//99
f 93//93 101//101 96//96
f 93//93 105//105 101//101
f 92//92 105//105 93//93
f 92//92 106//106 105//105
f 97//97 106//106 92//92
f 97//97 104//104 106//106
f 88//88 104//104 97//97
f 104//104 88//88 90//90
f 89//89 97//97 98//98
f 97//97 89//89 88//88
f 103//103 106//106 104//104
f 106//106 103//103 107//107
f 108//108 101//101 105//105
f 101//101 108//108 102//102
f 107//107 105//105 106//106
f 105//105 107//107 108//108
f 109//109 110//110 111//111
f 110//110 109//109 112//112
f 113//113 114//114 115//115
f 114//114 113//113 116//116
f 117//117 118//118 119//119
f 118//118 117//117 120//120
f 111//111 121//121 122//122
f 121//121 111//111 110//110
f 120//120 123//123 118//118
f 123//123 120//120 124//124
f 125//125 112//112 109//109
f 112//112 125//125 126//126
f 121//121 119//119 122//122
f 119//119 121//121 117//117
f 127//127 116//116 113//113
f 116//116 127//127 128//128
f 129//129 126//126 125//125
f 126//126 129//129 130//130
f 111//111 125//125 109//109
f 122//122 125//125 111//111
f 122//122 129//129 125//125
f 119//119 129//129 122//122
f 119//119 131//131 129//129
f 118//118 131//131 119//119
f 118//118 132//132 131//131
f 123//123 132//132 118//118
f 123//123 128//128 132//132
f 114//114 128//128 123//123
f 128//128 114//114 116//116
f 115//115 123//123 124//124
f 123//123 115//115 114//114
f 127//127 132//132 128//128
f 132//132 127//127 133//133
f 134//134 129//129 131//131
f 129//129 134//134 130//130
f 133//133 131//131 132//132
f 131//131 133//133 134//134
f 135//135 26//26 136//136
f 26//26 135//135 27//27
f 54//54 137//137 53//53
f 137//137 54//54 138//138
f 39//39 139//139 140//140
f 139//139 39//39 41//41
f 40//40 141//141 142//142
f 141//141 40//40 38//38
f 33//33 143//143 144//144
f 143//143 33//33 35//35
f 49//49 145//145 47//47
f 145//145 49//49 146//146
f 51//51 146//146 49//49
f 146//146 51//51 147//147
f 43//43 148//148 149//149
f 148//148 43//43 45//45
f 150//150 31//31 151//151
f 31//31 150//150 29//29
f 136//136 29//29 150//150
f 29//29 136//136 26//26
f 151//151 33//33 144//144
f 33//33 151//151 31//31
f 37//37 140//140 152//152
f 140//140 37//37 39//39
f 35//35 152//152 143//143
f 152//152 35//35 37//37
f 53//53 147//147 51//51
f 147//147 53//53 137//137
f 16//16 100//100 153//153
f 154//154 100//100 102//102
f 155//155 102//102 108//108
f 156//156 108//108 107//107
f 100//100 154//154 153//153
f 156//156 107//107 103//103
f 138//138 103//103 87//87
f 98//98 138//138 89//89
f 102//102 155//155 154//154
f 89//89 138//138 87//87
f 108//108 156//156 155//155
f 103//103 138//138 156//156
f 82//82 115//115 78//78
f 113//113 2//2 4//4
f 115//115 82//82 113//113
f 113//113 13//13 2//2
f 9//9 113//113 82//82
f 113//113 9//9 13//13
f 86//86 82//82 81//81
f 82//82 86//86 9//9
f 86//86 81//81 75//75
f 9//9 86//86 12//12
f 86//86 75//75 61//61
f 100//100 12//12 86//86
f 18//18 157//157 4//4
f 157//157 18//18 141//141
f 22//22 141//141 18//18
f 56//56 141//141 22//22
f 142//142 56//56 55//55
f 142//142 55//55 19//19
f 56//56 142//142 141//141
f 5//5 142//142 19//19
f 7//7 142//142 5//5
f 84//84 139//139 149//149
f 158//158 16//16 153//153
f 84//84 149//149 148//148
f 7//7 159//159 142//142
f 84//84 148//148 145//145
f 7//7 158//158 159//159
f 16//16 158//158 7//7
f 139//139 84//84 86//86
f 146//146 84//84 145//145
f 84//84 146//146 95//95
f 147//147 95//95 146//146
f 95//95 147//147 91//91
f 137//137 91//91 147//147
f 91//91 137//137 94//94
f 138//138 98//98 137//137
f 94//94 137//137 98//98
f 110//110 135//135 136//136
f 117//117 136//136 150//150
f 135//135 110//110 112//112
f 135//135 126//126 160//160
f 126//126 135//135 112//112
f 124//124 150//150 151//151
f 136//136 121//121 110//110
f 136//136 117//117 121//121
f 150//150 120//120 117//117
f 150//150 124//124 120//120
f 144//144 124//124 151//151
f 143//143 78//78 144//144
f 78//78 143//143 74//74
f 130//130 160//160 126//126
f 134//134 160//160 130//130
f 160//160 134//134 161//161
f 133//133 161//161 134//134
f 127//127 161//161 133//133
f 161//161 127//127 162//162
f 4//4 127//127 113//113
f 144//144 78//78 124//124
f 124//124 78//78 115//115
f 152//152 74//74 143//143
f 127//127 163//163 162//162
f 74//74 152//152 60//60
f 4//4 163//163 127//127
f 58//58 152//152 140//140
f 163//163 4//4 164//164
f 164//164 4//4 157//157
f 152//152 58//58 60//60
f 140//140 69//69 58//58
f 140//140 65//65 69//69
f 139//139 65//65 140//140
f 65//65 139//139 68//68
f 139//139 61//61 63//63
f 86//86 61//61 139//139
f 12//12 100//100 16//16
f 72//72 139//139 63//63
f 68//68 139//139 72//72
f 45//45 145//145 148//148
f 145//145 45//45 47//47
f 41//41 149//149 139//139
f 149//149 41//41 43//43
f 160//160 27//27 135//135
f 27//27 160//160 25//25
f 163//163 30//30 162//162
f 30//30 163//163 32//32
f 161//161 25//25 160//160
f 25//25 161//161 28//28
f 162//162 28//28 161//161
f 28//28 162//162 30//30
f 48//48 155//155 50//50
f 155//155 48//48 154//154
f 34//34 163//163 164//164
f 163//163 34//34 32//32
f 42//42 142//142 159//159
f 142//142 42//42 40//40
f 44//44 159//159 158//158
f 159//159 44//44 42//42
f 46//46 154//154 48//48
f 154//154 46//46 153//153
f 50//50 156//156 52//52
f 156//156 50//50 155//155
f 52//52 138//138 54//54
f 138//138 52//52 156//156
f 36//36 164//164 157//157
f 164//164 36//36 34//34
f 38//38 157//157 141//141
f 157//157 38//38 36//36
f 46//46 158//158 153//153
f 158//158 46//46 44//44
# 324 faces, 0 coords texture

# End of File
