solid OpenSCAD_Model
  facet normal 0.994523 0.104517 0
    outer loop
      vertex 160 0 16
      vertex 156.504 33.2659 0
      vertex 156.504 33.2659 16
    endloop
  endfacet
  facet normal 0.994523 0.104517 0
    outer loop
      vertex 156.504 33.2659 0
      vertex 160 0 16
      vertex 160 0 0
    endloop
  endfacet
  facet normal -0.994523 0.104517 0
    outer loop
      vertex -160 0 0
      vertex -156.504 33.2659 16
      vertex -156.504 33.2659 0
    endloop
  endfacet
  facet normal -0.994523 0.104517 0
    outer loop
      vertex -156.504 33.2659 16
      vertex -160 0 0
      vertex -160 0 16
    endloop
  endfacet
  facet normal 0 1 -0
    outer loop
      vertex 16.7246 159.124 0
      vertex -16.7246 159.124 16
      vertex 16.7246 159.124 16
    endloop
  endfacet
  facet normal 0 1 0
    outer loop
      vertex -16.7246 159.124 16
      vertex 16.7246 159.124 0
      vertex -16.7246 159.124 0
    endloop
  endfacet
  facet normal 0 -1 0
    outer loop
      vertex -16.7246 -159.124 0
      vertex 16.7246 -159.124 16
      vertex -16.7246 -159.124 16
    endloop
  endfacet
  facet normal 0 -1 -0
    outer loop
      vertex 16.7246 -159.124 16
      vertex -16.7246 -159.124 0
      vertex 16.7246 -159.124 0
    endloop
  endfacet
  facet normal 0.74314 0.669136 0
    outer loop
      vertex 129.443 94.0456 16
      vertex 107.061 118.903 0
      vertex 107.061 118.903 16
    endloop
  endfacet
  facet normal 0.74314 0.669136 0
    outer loop
      vertex 107.061 118.903 0
      vertex 129.443 94.0456 16
      vertex 129.443 94.0456 0
    endloop
  endfacet
  facet normal 0.951051 0.309035 0
    outer loop
      vertex 156.504 33.2659 16
      vertex 146.167 65.0779 0
      vertex 146.167 65.0779 16
    endloop
  endfacet
  facet normal 0.951051 0.309035 0
    outer loop
      vertex 146.167 65.0779 0
      vertex 156.504 33.2659 16
      vertex 156.504 33.2659 0
    endloop
  endfacet
  facet normal -0.587786 0.809017 0
    outer loop
      vertex -80 138.564 0
      vertex -107.061 118.903 16
      vertex -80 138.564 16
    endloop
  endfacet
  facet normal -0.587786 0.809017 0
    outer loop
      vertex -107.061 118.903 16
      vertex -80 138.564 0
      vertex -107.061 118.903 0
    endloop
  endfacet
  facet normal -0.207928 0.978144 0
    outer loop
      vertex -16.7246 159.124 0
      vertex -49.4427 152.169 16
      vertex -16.7246 159.124 16
    endloop
  endfacet
  facet normal -0.207928 0.978144 0
    outer loop
      vertex -49.4427 152.169 16
      vertex -16.7246 159.124 0
      vertex -49.4427 152.169 0
    endloop
  endfacet
  facet normal 0.951051 -0.309035 0
    outer loop
      vertex 146.167 -65.0779 16
      vertex 156.504 -33.2659 0
      vertex 156.504 -33.2659 16
    endloop
  endfacet
  facet normal 0.951051 -0.309035 0
    outer loop
      vertex 156.504 -33.2659 0
      vertex 146.167 -65.0779 16
      vertex 146.167 -65.0779 0
    endloop
  endfacet
  facet normal 0.866032 0.499989 0
    outer loop
      vertex 146.167 65.0779 16
      vertex 129.443 94.0456 0
      vertex 129.443 94.0456 16
    endloop
  endfacet
  facet normal 0.866032 0.499989 0
    outer loop
      vertex 129.443 94.0456 0
      vertex 146.167 65.0779 16
      vertex 146.167 65.0779 0
    endloop
  endfacet
  facet normal 0.406737 0.913545 -0
    outer loop
      vertex 80 138.564 0
      vertex 49.4427 152.169 16
      vertex 80 138.564 16
    endloop
  endfacet
  facet normal 0.406737 0.913545 0
    outer loop
      vertex 49.4427 152.169 16
      vertex 80 138.564 0
      vertex 49.4427 152.169 0
    endloop
  endfacet
  facet normal 0.207928 0.978144 -0
    outer loop
      vertex 49.4427 152.169 0
      vertex 16.7246 159.124 16
      vertex 49.4427 152.169 16
    endloop
  endfacet
  facet normal 0.207928 0.978144 0
    outer loop
      vertex 16.7246 159.124 16
      vertex 49.4427 152.169 0
      vertex 16.7246 159.124 0
    endloop
  endfacet
  facet normal 0.587786 0.809017 -0
    outer loop
      vertex 107.061 118.903 0
      vertex 80 138.564 16
      vertex 107.061 118.903 16
    endloop
  endfacet
  facet normal 0.587786 0.809017 0
    outer loop
      vertex 80 138.564 16
      vertex 107.061 118.903 0
      vertex 80 138.564 0
    endloop
  endfacet
  facet normal -0.866032 0.499989 0
    outer loop
      vertex -146.167 65.0779 0
      vertex -129.443 94.0456 16
      vertex -129.443 94.0456 0
    endloop
  endfacet
  facet normal -0.866032 0.499989 0
    outer loop
      vertex -129.443 94.0456 16
      vertex -146.167 65.0779 0
      vertex -146.167 65.0779 16
    endloop
  endfacet
  facet normal -0.74314 0.669136 0
    outer loop
      vertex -129.443 94.0456 0
      vertex -107.061 118.903 16
      vertex -107.061 118.903 0
    endloop
  endfacet
  facet normal -0.74314 0.669136 0
    outer loop
      vertex -107.061 118.903 16
      vertex -129.443 94.0456 0
      vertex -129.443 94.0456 16
    endloop
  endfacet
  facet normal -0.951051 0.309035 0
    outer loop
      vertex -156.504 33.2659 0
      vertex -146.167 65.0779 16
      vertex -146.167 65.0779 0
    endloop
  endfacet
  facet normal -0.951051 0.309035 0
    outer loop
      vertex -146.167 65.0779 16
      vertex -156.504 33.2659 0
      vertex -156.504 33.2659 16
    endloop
  endfacet
  facet normal 0 0 1
    outer loop
      vertex 152 0 16
      vertex 160 0 16
      vertex 156.504 33.2659 16
    endloop
  endfacet
  facet normal 0 0 1
    outer loop
      vertex 160 0 16
      vertex 152 0 16
      vertex 156.504 -33.2659 16
    endloop
  endfacet
  facet normal 0 0 1
    outer loop
      vertex 156.504 33.2659 16
      vertex 148.678 31.6026 16
      vertex 152 0 16
    endloop
  endfacet
  facet normal 0 0 1
    outer loop
      vertex 146.167 65.0779 16
      vertex 148.678 31.6026 16
      vertex 156.504 33.2659 16
    endloop
  endfacet
  facet normal 0 0 1
    outer loop
      vertex 146.167 65.0779 16
      vertex 138.859 61.824 16
      vertex 148.678 31.6026 16
    endloop
  endfacet
  facet normal 0 0 1
    outer loop
      vertex 129.443 94.0456 16
      vertex 138.859 61.824 16
      vertex 146.167 65.0779 16
    endloop
  endfacet
  facet normal 0 0 1
    outer loop
      vertex 129.443 94.0456 16
      vertex 122.971 89.3434 16
      vertex 138.859 61.824 16
    endloop
  endfacet
  facet normal 0 0 1
    outer loop
      vertex 107.061 118.903 16
      vertex 122.971 89.3434 16
      vertex 129.443 94.0456 16
    endloop
  endfacet
  facet normal 0 0 1
    outer loop
      vertex 107.061 118.903 16
      vertex 101.708 112.958 16
      vertex 122.971 89.3434 16
    endloop
  endfacet
  facet normal 0 0 1
    outer loop
      vertex 80 138.564 16
      vertex 101.708 112.958 16
      vertex 107.061 118.903 16
    endloop
  endfacet
  facet normal 0 0 1
    outer loop
      vertex 80 138.564 16
      vertex 76 131.636 16
      vertex 101.708 112.958 16
    endloop
  endfacet
  facet normal 0 0 1
    outer loop
      vertex 49.4427 152.169 16
      vertex 76 131.636 16
      vertex 80 138.564 16
    endloop
  endfacet
  facet normal 0 0 1
    outer loop
      vertex 49.4427 152.169 16
      vertex 46.9706 144.561 16
      vertex 76 131.636 16
    endloop
  endfacet
  facet normal 0 0 1
    outer loop
      vertex 16.7246 159.124 16
      vertex 46.9706 144.561 16
      vertex 49.4427 152.169 16
    endloop
  endfacet
  facet normal 0 0 1
    outer loop
      vertex 16.7246 159.124 16
      vertex 15.8883 151.167 16
      vertex 46.9706 144.561 16
    endloop
  endfacet
  facet normal 0 0 1
    outer loop
      vertex 16.7246 159.124 16
      vertex -15.8883 151.167 16
      vertex 15.8883 151.167 16
    endloop
  endfacet
  facet normal -0 0 1
    outer loop
      vertex -16.7246 159.124 16
      vertex -15.8883 151.167 16
      vertex 16.7246 159.124 16
    endloop
  endfacet
  facet normal 0 0 1
    outer loop
      vertex -16.7246 159.124 16
      vertex -46.9706 144.561 16
      vertex -15.8883 151.167 16
    endloop
  endfacet
  facet normal -0 0 1
    outer loop
      vertex -49.4427 152.169 16
      vertex -46.9706 144.561 16
      vertex -16.7246 159.124 16
    endloop
  endfacet
  facet normal 0 0 1
    outer loop
      vertex -49.4427 152.169 16
      vertex -76 131.636 16
      vertex -46.9706 144.561 16
    endloop
  endfacet
  facet normal -0 0 1
    outer loop
      vertex -80 138.564 16
      vertex -76 131.636 16
      vertex -49.4427 152.169 16
    endloop
  endfacet
  facet normal 0 0 1
    outer loop
      vertex -80 138.564 16
      vertex -101.708 112.958 16
      vertex -76 131.636 16
    endloop
  endfacet
  facet normal -0 0 1
    outer loop
      vertex -107.061 118.903 16
      vertex -101.708 112.958 16
      vertex -80 138.564 16
    endloop
  endfacet
  facet normal 0 0 1
    outer loop
      vertex -107.061 118.903 16
      vertex -122.971 89.3434 16
      vertex -101.708 112.958 16
    endloop
  endfacet
  facet normal -0 0 1
    outer loop
      vertex -129.443 94.0456 16
      vertex -122.971 89.3434 16
      vertex -107.061 118.903 16
    endloop
  endfacet
  facet normal 0 0 1
    outer loop
      vertex -129.443 94.0456 16
      vertex -138.859 61.824 16
      vertex -122.971 89.3434 16
    endloop
  endfacet
  facet normal -0 0 1
    outer loop
      vertex -146.167 65.0779 16
      vertex -138.859 61.824 16
      vertex -129.443 94.0456 16
    endloop
  endfacet
  facet normal 0 0 1
    outer loop
      vertex -146.167 65.0779 16
      vertex -148.678 31.6026 16
      vertex -138.859 61.824 16
    endloop
  endfacet
  facet normal -0 0 1
    outer loop
      vertex -156.504 33.2659 16
      vertex -148.678 31.6026 16
      vertex -146.167 65.0779 16
    endloop
  endfacet
  facet normal 0 0 1
    outer loop
      vertex -148.678 31.6026 16
      vertex -156.504 33.2659 16
      vertex -152 0 16
    endloop
  endfacet
  facet normal -0 0 1
    outer loop
      vertex 148.678 -31.6026 16
      vertex 156.504 -33.2659 16
      vertex 152 0 16
    endloop
  endfacet
  facet normal 0 0 1
    outer loop
      vertex 148.678 -31.6026 16
      vertex 146.167 -65.0779 16
      vertex 156.504 -33.2659 16
    endloop
  endfacet
  facet normal -0 0 1
    outer loop
      vertex 138.859 -61.824 16
      vertex 146.167 -65.0779 16
      vertex 148.678 -31.6026 16
    endloop
  endfacet
  facet normal 0 0 1
    outer loop
      vertex 138.859 -61.824 16
      vertex 129.443 -94.0456 16
      vertex 146.167 -65.0779 16
    endloop
  endfacet
  facet normal -0 0 1
    outer loop
      vertex 122.971 -89.3434 16
      vertex 129.443 -94.0456 16
      vertex 138.859 -61.824 16
    endloop
  endfacet
  facet normal 0 0 1
    outer loop
      vertex 122.971 -89.3434 16
      vertex 107.061 -118.903 16
      vertex 129.443 -94.0456 16
    endloop
  endfacet
  facet normal -0 0 1
    outer loop
      vertex 101.708 -112.958 16
      vertex 107.061 -118.903 16
      vertex 122.971 -89.3434 16
    endloop
  endfacet
  facet normal 0 0 1
    outer loop
      vertex 101.708 -112.958 16
      vertex 80 -138.564 16
      vertex 107.061 -118.903 16
    endloop
  endfacet
  facet normal -0 0 1
    outer loop
      vertex 76 -131.636 16
      vertex 80 -138.564 16
      vertex 101.708 -112.958 16
    endloop
  endfacet
  facet normal 0 0 1
    outer loop
      vertex 76 -131.636 16
      vertex 49.4427 -152.169 16
      vertex 80 -138.564 16
    endloop
  endfacet
  facet normal -0 0 1
    outer loop
      vertex 46.9706 -144.561 16
      vertex 49.4427 -152.169 16
      vertex 76 -131.636 16
    endloop
  endfacet
  facet normal 0 0 1
    outer loop
      vertex 46.9706 -144.561 16
      vertex 16.7246 -159.124 16
      vertex 49.4427 -152.169 16
    endloop
  endfacet
  facet normal -0 0 1
    outer loop
      vertex 15.8883 -151.167 16
      vertex 16.7246 -159.124 16
      vertex 46.9706 -144.561 16
    endloop
  endfacet
  facet normal -0 0 1
    outer loop
      vertex -15.8883 -151.167 16
      vertex 16.7246 -159.124 16
      vertex 15.8883 -151.167 16
    endloop
  endfacet
  facet normal 0 0 1
    outer loop
      vertex -15.8883 -151.167 16
      vertex -16.7246 -159.124 16
      vertex 16.7246 -159.124 16
    endloop
  endfacet
  facet normal 0 0 1
    outer loop
      vertex -46.9706 -144.561 16
      vertex -16.7246 -159.124 16
      vertex -15.8883 -151.167 16
    endloop
  endfacet
  facet normal 0 0 1
    outer loop
      vertex -46.9706 -144.561 16
      vertex -49.4427 -152.169 16
      vertex -16.7246 -159.124 16
    endloop
  endfacet
  facet normal 0 0 1
    outer loop
      vertex -76 -131.636 16
      vertex -49.4427 -152.169 16
      vertex -46.9706 -144.561 16
    endloop
  endfacet
  facet normal 0 0 1
    outer loop
      vertex -76 -131.636 16
      vertex -80 -138.564 16
      vertex -49.4427 -152.169 16
    endloop
  endfacet
  facet normal 0 0 1
    outer loop
      vertex -101.708 -112.958 16
      vertex -80 -138.564 16
      vertex -76 -131.636 16
    endloop
  endfacet
  facet normal 0 0 1
    outer loop
      vertex -101.708 -112.958 16
      vertex -107.061 -118.903 16
      vertex -80 -138.564 16
    endloop
  endfacet
  facet normal 0 0 1
    outer loop
      vertex -122.971 -89.3434 16
      vertex -107.061 -118.903 16
      vertex -101.708 -112.958 16
    endloop
  endfacet
  facet normal 0 0 1
    outer loop
      vertex -122.971 -89.3434 16
      vertex -129.443 -94.0456 16
      vertex -107.061 -118.903 16
    endloop
  endfacet
  facet normal 0 0 1
    outer loop
      vertex -138.859 -61.824 16
      vertex -129.443 -94.0456 16
      vertex -122.971 -89.3434 16
    endloop
  endfacet
  facet normal 0 0 1
    outer loop
      vertex -138.859 -61.824 16
      vertex -146.167 -65.0779 16
      vertex -129.443 -94.0456 16
    endloop
  endfacet
  facet normal 0 0 1
    outer loop
      vertex -148.678 -31.6026 16
      vertex -146.167 -65.0779 16
      vertex -138.859 -61.824 16
    endloop
  endfacet
  facet normal 0 0 1
    outer loop
      vertex -156.504 -33.2659 16
      vertex -148.678 -31.6026 16
      vertex -152 0 16
    endloop
  endfacet
  facet normal 0 0 1
    outer loop
      vertex -160 0 16
      vertex -152 0 16
      vertex -156.504 33.2659 16
    endloop
  endfacet
  facet normal 0 0 1
    outer loop
      vertex -148.678 -31.6026 16
      vertex -156.504 -33.2659 16
      vertex -146.167 -65.0779 16
    endloop
  endfacet
  facet normal 0 0 1
    outer loop
      vertex -152 0 16
      vertex -160 0 16
      vertex -156.504 -33.2659 16
    endloop
  endfacet
  facet normal -0.406737 0.913545 0
    outer loop
      vertex -49.4427 152.169 0
      vertex -80 138.564 16
      vertex -49.4427 152.169 16
    endloop
  endfacet
  facet normal -0.406737 0.913545 0
    outer loop
      vertex -80 138.564 16
      vertex -49.4427 152.169 0
      vertex -80 138.564 0
    endloop
  endfacet
  facet normal 0.994523 -0.104517 0
    outer loop
      vertex 156.504 -33.2659 16
      vertex 160 0 0
      vertex 160 0 16
    endloop
  endfacet
  facet normal 0.994523 -0.104517 0
    outer loop
      vertex 160 0 0
      vertex 156.504 -33.2659 16
      vertex 156.504 -33.2659 0
    endloop
  endfacet
  facet normal 0 0 -1
    outer loop
      vertex 152 0 0
      vertex 160 0 0
      vertex 156.504 -33.2659 0
    endloop
  endfacet
  facet normal 0 0 -1
    outer loop
      vertex 160 0 0
      vertex 152 0 0
      vertex 156.504 33.2659 0
    endloop
  endfacet
  facet normal 0 0 -1
    outer loop
      vertex 156.504 -33.2659 0
      vertex 148.678 -31.6026 0
      vertex 152 0 0
    endloop
  endfacet
  facet normal 0 0 -1
    outer loop
      vertex 146.167 -65.0779 0
      vertex 148.678 -31.6026 0
      vertex 156.504 -33.2659 0
    endloop
  endfacet
  facet normal 0 0 -1
    outer loop
      vertex 146.167 -65.0779 0
      vertex 138.859 -61.824 0
      vertex 148.678 -31.6026 0
    endloop
  endfacet
  facet normal 0 0 -1
    outer loop
      vertex 129.443 -94.0456 0
      vertex 138.859 -61.824 0
      vertex 146.167 -65.0779 0
    endloop
  endfacet
  facet normal 0 0 -1
    outer loop
      vertex 129.443 -94.0456 0
      vertex 122.971 -89.3434 0
      vertex 138.859 -61.824 0
    endloop
  endfacet
  facet normal 0 0 -1
    outer loop
      vertex 107.061 -118.903 0
      vertex 122.971 -89.3434 0
      vertex 129.443 -94.0456 0
    endloop
  endfacet
  facet normal 0 0 -1
    outer loop
      vertex 107.061 -118.903 0
      vertex 101.708 -112.958 0
      vertex 122.971 -89.3434 0
    endloop
  endfacet
  facet normal 0 0 -1
    outer loop
      vertex 80 -138.564 0
      vertex 101.708 -112.958 0
      vertex 107.061 -118.903 0
    endloop
  endfacet
  facet normal 0 0 -1
    outer loop
      vertex 80 -138.564 0
      vertex 76 -131.636 0
      vertex 101.708 -112.958 0
    endloop
  endfacet
  facet normal 0 0 -1
    outer loop
      vertex 49.4427 -152.169 0
      vertex 76 -131.636 0
      vertex 80 -138.564 0
    endloop
  endfacet
  facet normal 0 0 -1
    outer loop
      vertex 49.4427 -152.169 0
      vertex 46.9706 -144.561 0
      vertex 76 -131.636 0
    endloop
  endfacet
  facet normal 0 0 -1
    outer loop
      vertex 16.7246 -159.124 0
      vertex 46.9706 -144.561 0
      vertex 49.4427 -152.169 0
    endloop
  endfacet
  facet normal 0 0 -1
    outer loop
      vertex 16.7246 -159.124 0
      vertex 15.8883 -151.167 0
      vertex 46.9706 -144.561 0
    endloop
  endfacet
  facet normal 0 0 -1
    outer loop
      vertex 16.7246 -159.124 0
      vertex -15.8883 -151.167 0
      vertex 15.8883 -151.167 0
    endloop
  endfacet
  facet normal 0 0 -1
    outer loop
      vertex -16.7246 -159.124 0
      vertex -15.8883 -151.167 0
      vertex 16.7246 -159.124 0
    endloop
  endfacet
  facet normal 0 0 -1
    outer loop
      vertex -16.7246 -159.124 0
      vertex -46.9706 -144.561 0
      vertex -15.8883 -151.167 0
    endloop
  endfacet
  facet normal 0 0 -1
    outer loop
      vertex -49.4427 -152.169 0
      vertex -46.9706 -144.561 0
      vertex -16.7246 -159.124 0
    endloop
  endfacet
  facet normal 0 0 -1
    outer loop
      vertex -49.4427 -152.169 0
      vertex -76 -131.636 0
      vertex -46.9706 -144.561 0
    endloop
  endfacet
  facet normal 0 0 -1
    outer loop
      vertex -80 -138.564 0
      vertex -76 -131.636 0
      vertex -49.4427 -152.169 0
    endloop
  endfacet
  facet normal 0 0 -1
    outer loop
      vertex -80 -138.564 0
      vertex -101.708 -112.958 0
      vertex -76 -131.636 0
    endloop
  endfacet
  facet normal 0 0 -1
    outer loop
      vertex -107.061 -118.903 0
      vertex -101.708 -112.958 0
      vertex -80 -138.564 0
    endloop
  endfacet
  facet normal 0 0 -1
    outer loop
      vertex -107.061 -118.903 0
      vertex -122.971 -89.3434 0
      vertex -101.708 -112.958 0
    endloop
  endfacet
  facet normal 0 0 -1
    outer loop
      vertex -129.443 -94.0456 0
      vertex -122.971 -89.3434 0
      vertex -107.061 -118.903 0
    endloop
  endfacet
  facet normal 0 0 -1
    outer loop
      vertex -129.443 -94.0456 0
      vertex -138.859 -61.824 0
      vertex -122.971 -89.3434 0
    endloop
  endfacet
  facet normal 0 0 -1
    outer loop
      vertex -146.167 -65.0779 0
      vertex -138.859 -61.824 0
      vertex -129.443 -94.0456 0
    endloop
  endfacet
  facet normal 0 0 -1
    outer loop
      vertex -146.167 -65.0779 0
      vertex -148.678 -31.6026 0
      vertex -138.859 -61.824 0
    endloop
  endfacet
  facet normal 0 0 -1
    outer loop
      vertex -156.504 -33.2659 0
      vertex -148.678 -31.6026 0
      vertex -146.167 -65.0779 0
    endloop
  endfacet
  facet normal -0 0 -1
    outer loop
      vertex -148.678 -31.6026 0
      vertex -156.504 -33.2659 0
      vertex -152 0 0
    endloop
  endfacet
  facet normal 0 0 -1
    outer loop
      vertex 148.678 31.6026 0
      vertex 156.504 33.2659 0
      vertex 152 0 0
    endloop
  endfacet
  facet normal 0 0 -1
    outer loop
      vertex 148.678 31.6026 0
      vertex 146.167 65.0779 0
      vertex 156.504 33.2659 0
    endloop
  endfacet
  facet normal 0 0 -1
    outer loop
      vertex 138.859 61.824 0
      vertex 146.167 65.0779 0
      vertex 148.678 31.6026 0
    endloop
  endfacet
  facet normal 0 0 -1
    outer loop
      vertex 138.859 61.824 0
      vertex 129.443 94.0456 0
      vertex 146.167 65.0779 0
    endloop
  endfacet
  facet normal 0 0 -1
    outer loop
      vertex 122.971 89.3434 0
      vertex 129.443 94.0456 0
      vertex 138.859 61.824 0
    endloop
  endfacet
  facet normal 0 0 -1
    outer loop
      vertex 122.971 89.3434 0
      vertex 107.061 118.903 0
      vertex 129.443 94.0456 0
    endloop
  endfacet
  facet normal 0 0 -1
    outer loop
      vertex 101.708 112.958 0
      vertex 107.061 118.903 0
      vertex 122.971 89.3434 0
    endloop
  endfacet
  facet normal 0 0 -1
    outer loop
      vertex 101.708 112.958 0
      vertex 80 138.564 0
      vertex 107.061 118.903 0
    endloop
  endfacet
  facet normal 0 0 -1
    outer loop
      vertex 76 131.636 0
      vertex 80 138.564 0
      vertex 101.708 112.958 0
    endloop
  endfacet
  facet normal 0 0 -1
    outer loop
      vertex 76 131.636 0
      vertex 49.4427 152.169 0
      vertex 80 138.564 0
    endloop
  endfacet
  facet normal 0 0 -1
    outer loop
      vertex 46.9706 144.561 0
      vertex 49.4427 152.169 0
      vertex 76 131.636 0
    endloop
  endfacet
  facet normal 0 0 -1
    outer loop
      vertex 46.9706 144.561 0
      vertex 16.7246 159.124 0
      vertex 49.4427 152.169 0
    endloop
  endfacet
  facet normal 0 0 -1
    outer loop
      vertex 15.8883 151.167 0
      vertex 16.7246 159.124 0
      vertex 46.9706 144.561 0
    endloop
  endfacet
  facet normal 0 0 -1
    outer loop
      vertex -15.8883 151.167 0
      vertex 16.7246 159.124 0
      vertex 15.8883 151.167 0
    endloop
  endfacet
  facet normal 0 0 -1
    outer loop
      vertex -15.8883 151.167 0
      vertex -16.7246 159.124 0
      vertex 16.7246 159.124 0
    endloop
  endfacet
  facet normal 0 0 -1
    outer loop
      vertex -46.9706 144.561 0
      vertex -16.7246 159.124 0
      vertex -15.8883 151.167 0
    endloop
  endfacet
  facet normal 0 0 -1
    outer loop
      vertex -46.9706 144.561 0
      vertex -49.4427 152.169 0
      vertex -16.7246 159.124 0
    endloop
  endfacet
  facet normal 0 0 -1
    outer loop
      vertex -76 131.636 0
      vertex -49.4427 152.169 0
      vertex -46.9706 144.561 0
    endloop
  endfacet
  facet normal 0 0 -1
    outer loop
      vertex -76 131.636 0
      vertex -80 138.564 0
      vertex -49.4427 152.169 0
    endloop
  endfacet
  facet normal 0 0 -1
    outer loop
      vertex -101.708 112.958 0
      vertex -80 138.564 0
      vertex -76 131.636 0
    endloop
  endfacet
  facet normal 0 0 -1
    outer loop
      vertex -101.708 112.958 0
      vertex -107.061 118.903 0
      vertex -80 138.564 0
    endloop
  endfacet
  facet normal 0 0 -1
    outer loop
      vertex -122.971 89.3434 0
      vertex -107.061 118.903 0
      vertex -101.708 112.958 0
    endloop
  endfacet
  facet normal 0 0 -1
    outer loop
      vertex -122.971 89.3434 0
      vertex -129.443 94.0456 0
      vertex -107.061 118.903 0
    endloop
  endfacet
  facet normal 0 0 -1
    outer loop
      vertex -138.859 61.824 0
      vertex -129.443 94.0456 0
      vertex -122.971 89.3434 0
    endloop
  endfacet
  facet normal 0 0 -1
    outer loop
      vertex -138.859 61.824 0
      vertex -146.167 65.0779 0
      vertex -129.443 94.0456 0
    endloop
  endfacet
  facet normal 0 0 -1
    outer loop
      vertex -148.678 31.6026 0
      vertex -146.167 65.0779 0
      vertex -138.859 61.824 0
    endloop
  endfacet
  facet normal 0 0 -1
    outer loop
      vertex -156.504 33.2659 0
      vertex -148.678 31.6026 0
      vertex -152 0 0
    endloop
  endfacet
  facet normal 0 0 -1
    outer loop
      vertex -160 0 0
      vertex -152 0 0
      vertex -156.504 -33.2659 0
    endloop
  endfacet
  facet normal 0 0 -1
    outer loop
      vertex -148.678 31.6026 0
      vertex -156.504 33.2659 0
      vertex -146.167 65.0779 0
    endloop
  endfacet
  facet normal 0 0 -1
    outer loop
      vertex -152 0 0
      vertex -160 0 0
      vertex -156.504 33.2659 0
    endloop
  endfacet
  facet normal 0.207928 -0.978144 0
    outer loop
      vertex 16.7246 -159.124 0
      vertex 49.4427 -152.169 16
      vertex 16.7246 -159.124 16
    endloop
  endfacet
  facet normal 0.207928 -0.978144 0
    outer loop
      vertex 49.4427 -152.169 16
      vertex 16.7246 -159.124 0
      vertex 49.4427 -152.169 0
    endloop
  endfacet
  facet normal 0.866032 -0.499989 0
    outer loop
      vertex 129.443 -94.0456 16
      vertex 146.167 -65.0779 0
      vertex 146.167 -65.0779 16
    endloop
  endfacet
  facet normal 0.866032 -0.499989 0
    outer loop
      vertex 146.167 -65.0779 0
      vertex 129.443 -94.0456 16
      vertex 129.443 -94.0456 0
    endloop
  endfacet
  facet normal -0.587786 -0.809017 0
    outer loop
      vertex -107.061 -118.903 0
      vertex -80 -138.564 16
      vertex -107.061 -118.903 16
    endloop
  endfacet
  facet normal -0.587786 -0.809017 -0
    outer loop
      vertex -80 -138.564 16
      vertex -107.061 -118.903 0
      vertex -80 -138.564 0
    endloop
  endfacet
  facet normal -0.866032 -0.499989 0
    outer loop
      vertex -129.443 -94.0456 0
      vertex -146.167 -65.0779 16
      vertex -146.167 -65.0779 0
    endloop
  endfacet
  facet normal -0.866032 -0.499989 0
    outer loop
      vertex -146.167 -65.0779 16
      vertex -129.443 -94.0456 0
      vertex -129.443 -94.0456 16
    endloop
  endfacet
  facet normal -0.74314 -0.669136 0
    outer loop
      vertex -107.061 -118.903 0
      vertex -129.443 -94.0456 16
      vertex -129.443 -94.0456 0
    endloop
  endfacet
  facet normal -0.74314 -0.669136 0
    outer loop
      vertex -129.443 -94.0456 16
      vertex -107.061 -118.903 0
      vertex -107.061 -118.903 16
    endloop
  endfacet
  facet normal 0.587786 -0.809017 0
    outer loop
      vertex 80 -138.564 0
      vertex 107.061 -118.903 16
      vertex 80 -138.564 16
    endloop
  endfacet
  facet normal 0.587786 -0.809017 0
    outer loop
      vertex 107.061 -118.903 16
      vertex 80 -138.564 0
      vertex 107.061 -118.903 0
    endloop
  endfacet
  facet normal 0.406737 -0.913545 0
    outer loop
      vertex 49.4427 -152.169 0
      vertex 80 -138.564 16
      vertex 49.4427 -152.169 16
    endloop
  endfacet
  facet normal 0.406737 -0.913545 0
    outer loop
      vertex 80 -138.564 16
      vertex 49.4427 -152.169 0
      vertex 80 -138.564 0
    endloop
  endfacet
  facet normal -0.207928 -0.978144 0
    outer loop
      vertex -49.4427 -152.169 0
      vertex -16.7246 -159.124 16
      vertex -49.4427 -152.169 16
    endloop
  endfacet
  facet normal -0.207928 -0.978144 -0
    outer loop
      vertex -16.7246 -159.124 16
      vertex -49.4427 -152.169 0
      vertex -16.7246 -159.124 0
    endloop
  endfacet
  facet normal -0.951051 -0.309035 0
    outer loop
      vertex -146.167 -65.0779 0
      vertex -156.504 -33.2659 16
      vertex -156.504 -33.2659 0
    endloop
  endfacet
  facet normal -0.951051 -0.309035 0
    outer loop
      vertex -156.504 -33.2659 16
      vertex -146.167 -65.0779 0
      vertex -146.167 -65.0779 16
    endloop
  endfacet
  facet normal -0.994523 -0.104517 0
    outer loop
      vertex -156.504 -33.2659 0
      vertex -160 0 16
      vertex -160 0 0
    endloop
  endfacet
  facet normal -0.994523 -0.104517 0
    outer loop
      vertex -160 0 16
      vertex -156.504 -33.2659 0
      vertex -156.504 -33.2659 16
    endloop
  endfacet
  facet normal 0.74314 -0.669136 0
    outer loop
      vertex 107.061 -118.903 16
      vertex 129.443 -94.0456 0
      vertex 129.443 -94.0456 16
    endloop
  endfacet
  facet normal 0.74314 -0.669136 0
    outer loop
      vertex 129.443 -94.0456 0
      vertex 107.061 -118.903 16
      vertex 107.061 -118.903 0
    endloop
  endfacet
  facet normal -0.406737 -0.913545 0
    outer loop
      vertex -80 -138.564 0
      vertex -49.4427 -152.169 16
      vertex -80 -138.564 16
    endloop
  endfacet
  facet normal -0.406737 -0.913545 -0
    outer loop
      vertex -49.4427 -152.169 16
      vertex -80 -138.564 0
      vertex -49.4427 -152.169 0
    endloop
  endfacet
  facet normal -0.99452 -0.104542 0
    outer loop
      vertex 152 0 0
      vertex 148.678 31.6026 16
      vertex 148.678 31.6026 0
    endloop
  endfacet
  facet normal -0.99452 -0.104542 0
    outer loop
      vertex 148.678 31.6026 16
      vertex 152 0 0
      vertex 152 0 16
    endloop
  endfacet
  facet normal 0.99452 -0.104542 0
    outer loop
      vertex -152 0 16
      vertex -148.678 31.6026 0
      vertex -148.678 31.6026 16
    endloop
  endfacet
  facet normal 0.99452 -0.104542 0
    outer loop
      vertex -148.678 31.6026 0
      vertex -152 0 16
      vertex -152 0 0
    endloop
  endfacet
  facet normal 0 -1 0
    outer loop
      vertex -15.8883 151.167 0
      vertex 15.8883 151.167 16
      vertex -15.8883 151.167 16
    endloop
  endfacet
  facet normal 0 -1 -0
    outer loop
      vertex 15.8883 151.167 16
      vertex -15.8883 151.167 0
      vertex 15.8883 151.167 0
    endloop
  endfacet
  facet normal 0 1 -0
    outer loop
      vertex 15.8883 -151.167 0
      vertex -15.8883 -151.167 16
      vertex 15.8883 -151.167 16
    endloop
  endfacet
  facet normal 0 1 0
    outer loop
      vertex -15.8883 -151.167 16
      vertex 15.8883 -151.167 0
      vertex -15.8883 -151.167 0
    endloop
  endfacet
  facet normal -0.587786 -0.809016 0
    outer loop
      vertex 76 131.636 0
      vertex 101.708 112.958 16
      vertex 76 131.636 16
    endloop
  endfacet
  facet normal -0.587786 -0.809016 -0
    outer loop
      vertex 101.708 112.958 16
      vertex 76 131.636 0
      vertex 101.708 112.958 0
    endloop
  endfacet
  facet normal 0.74314 -0.669136 0
    outer loop
      vertex -122.971 89.3434 16
      vertex -101.708 112.958 0
      vertex -101.708 112.958 16
    endloop
  endfacet
  facet normal 0.74314 -0.669136 0
    outer loop
      vertex -101.708 112.958 0
      vertex -122.971 89.3434 16
      vertex -122.971 89.3434 0
    endloop
  endfacet
  facet normal 0.86603 -0.499992 0
    outer loop
      vertex -138.859 61.824 16
      vertex -122.971 89.3434 0
      vertex -122.971 89.3434 16
    endloop
  endfacet
  facet normal 0.86603 -0.499992 0
    outer loop
      vertex -122.971 89.3434 0
      vertex -138.859 61.824 16
      vertex -138.859 61.824 0
    endloop
  endfacet
  facet normal 0.406744 -0.913542 0
    outer loop
      vertex -76 131.636 0
      vertex -46.9706 144.561 16
      vertex -76 131.636 16
    endloop
  endfacet
  facet normal 0.406744 -0.913542 0
    outer loop
      vertex -46.9706 144.561 16
      vertex -76 131.636 0
      vertex -46.9706 144.561 0
    endloop
  endfacet
  facet normal -0.86603 -0.499992 0
    outer loop
      vertex 138.859 61.824 0
      vertex 122.971 89.3434 16
      vertex 122.971 89.3434 0
    endloop
  endfacet
  facet normal -0.86603 -0.499992 0
    outer loop
      vertex 122.971 89.3434 16
      vertex 138.859 61.824 0
      vertex 138.859 61.824 16
    endloop
  endfacet
  facet normal -0.951061 -0.309002 0
    outer loop
      vertex 148.678 31.6026 0
      vertex 138.859 61.824 16
      vertex 138.859 61.824 0
    endloop
  endfacet
  facet normal -0.951061 -0.309002 0
    outer loop
      vertex 138.859 61.824 16
      vertex 148.678 31.6026 0
      vertex 148.678 31.6026 16
    endloop
  endfacet
  facet normal -0.74314 -0.669136 0
    outer loop
      vertex 122.971 89.3434 0
      vertex 101.708 112.958 16
      vertex 101.708 112.958 0
    endloop
  endfacet
  facet normal -0.74314 -0.669136 0
    outer loop
      vertex 101.708 112.958 16
      vertex 122.971 89.3434 0
      vertex 122.971 89.3434 16
    endloop
  endfacet
  facet normal -0.207889 -0.978152 0
    outer loop
      vertex 15.8883 151.167 0
      vertex 46.9706 144.561 16
      vertex 15.8883 151.167 16
    endloop
  endfacet
  facet normal -0.207889 -0.978152 -0
    outer loop
      vertex 46.9706 144.561 16
      vertex 15.8883 151.167 0
      vertex 46.9706 144.561 0
    endloop
  endfacet
  facet normal -0.406744 -0.913542 0
    outer loop
      vertex 46.9706 144.561 0
      vertex 76 131.636 16
      vertex 46.9706 144.561 16
    endloop
  endfacet
  facet normal -0.406744 -0.913542 -0
    outer loop
      vertex 76 131.636 16
      vertex 46.9706 144.561 0
      vertex 76 131.636 0
    endloop
  endfacet
  facet normal 0.951061 -0.309002 0
    outer loop
      vertex -148.678 31.6026 16
      vertex -138.859 61.824 0
      vertex -138.859 61.824 16
    endloop
  endfacet
  facet normal 0.951061 -0.309002 0
    outer loop
      vertex -138.859 61.824 0
      vertex -148.678 31.6026 16
      vertex -148.678 31.6026 0
    endloop
  endfacet
  facet normal 0.587786 -0.809016 0
    outer loop
      vertex -101.708 112.958 0
      vertex -76 131.636 16
      vertex -101.708 112.958 16
    endloop
  endfacet
  facet normal 0.587786 -0.809016 0
    outer loop
      vertex -76 131.636 16
      vertex -101.708 112.958 0
      vertex -76 131.636 0
    endloop
  endfacet
  facet normal 0.207889 -0.978152 0
    outer loop
      vertex -46.9706 144.561 0
      vertex -15.8883 151.167 16
      vertex -46.9706 144.561 16
    endloop
  endfacet
  facet normal 0.207889 -0.978152 0
    outer loop
      vertex -15.8883 151.167 16
      vertex -46.9706 144.561 0
      vertex -15.8883 151.167 0
    endloop
  endfacet
  facet normal -0.99452 0.104542 0
    outer loop
      vertex 148.678 -31.6026 0
      vertex 152 0 16
      vertex 152 0 0
    endloop
  endfacet
  facet normal -0.99452 0.104542 0
    outer loop
      vertex 152 0 16
      vertex 148.678 -31.6026 0
      vertex 148.678 -31.6026 16
    endloop
  endfacet
  facet normal -0.86603 0.499992 0
    outer loop
      vertex 122.971 -89.3434 0
      vertex 138.859 -61.824 16
      vertex 138.859 -61.824 0
    endloop
  endfacet
  facet normal -0.86603 0.499992 0
    outer loop
      vertex 138.859 -61.824 16
      vertex 122.971 -89.3434 0
      vertex 122.971 -89.3434 16
    endloop
  endfacet
  facet normal 0.86603 0.499992 0
    outer loop
      vertex -122.971 -89.3434 16
      vertex -138.859 -61.824 0
      vertex -138.859 -61.824 16
    endloop
  endfacet
  facet normal 0.86603 0.499992 0
    outer loop
      vertex -138.859 -61.824 0
      vertex -122.971 -89.3434 16
      vertex -122.971 -89.3434 0
    endloop
  endfacet
  facet normal 0.99452 0.104542 0
    outer loop
      vertex -148.678 -31.6026 16
      vertex -152 0 0
      vertex -152 0 16
    endloop
  endfacet
  facet normal 0.99452 0.104542 0
    outer loop
      vertex -152 0 0
      vertex -148.678 -31.6026 16
      vertex -148.678 -31.6026 0
    endloop
  endfacet
  facet normal -0.587786 0.809016 0
    outer loop
      vertex 101.708 -112.958 0
      vertex 76 -131.636 16
      vertex 101.708 -112.958 16
    endloop
  endfacet
  facet normal -0.587786 0.809016 0
    outer loop
      vertex 76 -131.636 16
      vertex 101.708 -112.958 0
      vertex 76 -131.636 0
    endloop
  endfacet
  facet normal -0.951061 0.309002 0
    outer loop
      vertex 138.859 -61.824 0
      vertex 148.678 -31.6026 16
      vertex 148.678 -31.6026 0
    endloop
  endfacet
  facet normal -0.951061 0.309002 0
    outer loop
      vertex 148.678 -31.6026 16
      vertex 138.859 -61.824 0
      vertex 138.859 -61.824 16
    endloop
  endfacet
  facet normal 0.74314 0.669136 0
    outer loop
      vertex -101.708 -112.958 16
      vertex -122.971 -89.3434 0
      vertex -122.971 -89.3434 16
    endloop
  endfacet
  facet normal 0.74314 0.669136 0
    outer loop
      vertex -122.971 -89.3434 0
      vertex -101.708 -112.958 16
      vertex -101.708 -112.958 0
    endloop
  endfacet
  facet normal 0.951061 0.309002 0
    outer loop
      vertex -138.859 -61.824 16
      vertex -148.678 -31.6026 0
      vertex -148.678 -31.6026 16
    endloop
  endfacet
  facet normal 0.951061 0.309002 0
    outer loop
      vertex -148.678 -31.6026 0
      vertex -138.859 -61.824 16
      vertex -138.859 -61.824 0
    endloop
  endfacet
  facet normal -0.406744 0.913542 0
    outer loop
      vertex 76 -131.636 0
      vertex 46.9706 -144.561 16
      vertex 76 -131.636 16
    endloop
  endfacet
  facet normal -0.406744 0.913542 0
    outer loop
      vertex 46.9706 -144.561 16
      vertex 76 -131.636 0
      vertex 46.9706 -144.561 0
    endloop
  endfacet
  facet normal -0.207889 0.978152 0
    outer loop
      vertex 46.9706 -144.561 0
      vertex 15.8883 -151.167 16
      vertex 46.9706 -144.561 16
    endloop
  endfacet
  facet normal -0.207889 0.978152 0
    outer loop
      vertex 15.8883 -151.167 16
      vertex 46.9706 -144.561 0
      vertex 15.8883 -151.167 0
    endloop
  endfacet
  facet normal -0.74314 0.669136 0
    outer loop
      vertex 101.708 -112.958 0
      vertex 122.971 -89.3434 16
      vertex 122.971 -89.3434 0
    endloop
  endfacet
  facet normal -0.74314 0.669136 0
    outer loop
      vertex 122.971 -89.3434 16
      vertex 101.708 -112.958 0
      vertex 101.708 -112.958 16
    endloop
  endfacet
  facet normal 0.406744 0.913542 -0
    outer loop
      vertex -46.9706 -144.561 0
      vertex -76 -131.636 16
      vertex -46.9706 -144.561 16
    endloop
  endfacet
  facet normal 0.406744 0.913542 0
    outer loop
      vertex -76 -131.636 16
      vertex -46.9706 -144.561 0
      vertex -76 -131.636 0
    endloop
  endfacet
  facet normal 0.587786 0.809016 -0
    outer loop
      vertex -76 -131.636 0
      vertex -101.708 -112.958 16
      vertex -76 -131.636 16
    endloop
  endfacet
  facet normal 0.587786 0.809016 0
    outer loop
      vertex -101.708 -112.958 16
      vertex -76 -131.636 0
      vertex -101.708 -112.958 0
    endloop
  endfacet
  facet normal 0.207889 0.978152 -0
    outer loop
      vertex -15.8883 -151.167 0
      vertex -46.9706 -144.561 16
      vertex -15.8883 -151.167 16
    endloop
  endfacet
  facet normal 0.207889 0.978152 0
    outer loop
      vertex -46.9706 -144.561 16
      vertex -15.8883 -151.167 0
      vertex -46.9706 -144.561 0
    endloop
  endfacet
endsolid OpenSCAD_Model
